<svg width="17" height="17" viewBox="0 0 17 17" fill="none" xmlns="http://www.w3.org/2000/svg">
<path fill-rule="evenodd" clip-rule="evenodd" d="M8.49967 0.708374C4.19655 0.708374 0.708008 4.19692 0.708008 8.50004C0.708008 12.8032 4.19655 16.2917 8.49967 16.2917C12.8028 16.2917 16.2913 12.8032 16.2913 8.50004C16.2913 4.19692 12.8028 0.708374 8.49967 0.708374ZM11.877 7.18254C11.9392 7.11145 11.9865 7.02865 12.0163 6.93899C12.046 6.84934 12.0575 6.75465 12.05 6.66049C12.0426 6.56633 12.0164 6.47461 11.973 6.39071C11.9296 6.30682 11.8699 6.23246 11.7974 6.17199C11.7248 6.11153 11.6409 6.06618 11.5505 6.03863C11.4602 6.01107 11.3653 6.00186 11.2713 6.01154C11.1773 6.02122 11.0863 6.04959 11.0035 6.09499C10.9206 6.14038 10.8477 6.20188 10.789 6.27587L7.74317 9.93017L6.16713 8.35342C6.03354 8.22439 5.85461 8.15299 5.66889 8.1546C5.48317 8.15622 5.30551 8.23071 5.17418 8.36204C5.04285 8.49337 4.96835 8.67103 4.96674 8.85676C4.96512 9.04248 5.03652 9.22141 5.16555 9.355L7.29055 11.48C7.36015 11.5496 7.44347 11.6038 7.53522 11.6394C7.62696 11.675 7.72511 11.691 7.82341 11.6866C7.9217 11.6821 8.01799 11.6572 8.10613 11.6135C8.19427 11.5697 8.27233 11.5081 8.33534 11.4325L11.877 7.18254Z" fill="#35CD00"/>
</svg>
