<svg width="135" height="134" viewBox="0 0 135 134" fill="none" xmlns="http://www.w3.org/2000/svg">
<circle cx="70" cy="69" r="65" fill="#FB7800" fill-opacity="0.3"/>
<circle cx="65" cy="65" r="64.5" stroke="#FB7800"/>
<g clip-path="url(#clip0_394_315)">
<path d="M104 69.391V91.4663C103.904 91.6235 103.819 91.787 103.745 91.9557C103.439 92.8471 102.86 93.6199 102.089 94.1652C101.319 94.7105 100.397 95.0006 99.4531 94.9948C80.151 94.9948 60.8496 94.9948 41.5487 94.9948C40.6043 95.0007 39.6819 94.7106 38.9115 94.1654C38.1411 93.6201 37.5616 92.8472 37.2547 91.9557C37.1803 91.7873 37.0952 91.6239 37 91.4663V69.2604C37.1745 68.872 37.3193 68.4732 37.5112 68.0935C40.7798 61.6251 44.0554 55.1578 47.3379 48.6917C48.2103 46.9501 49.6515 46.0949 51.5969 46.0792C52.1588 46.0792 52.7206 46.0792 53.3417 46.0792C53.3417 45.4975 53.3417 44.9785 53.3417 44.4613C53.3574 43.4563 53.8198 43 54.8388 42.9983C56.9976 42.9983 59.1559 42.9983 61.3137 42.9983H86.0984C87.2046 42.9983 87.653 43.4389 87.6688 44.5257C87.6688 45.0203 87.6688 45.5167 87.6688 45.9835C87.7699 46.0305 87.8066 46.0636 87.8432 46.0653C88.2567 46.0653 88.6703 46.0897 89.0838 46.0758C91.3049 46.0009 92.849 46.9762 93.8314 48.9704C95.2481 51.8528 96.7452 54.6951 98.1759 57.5706C100.132 61.5049 102.06 65.4445 104 69.391ZM70.4703 92.1246H99.1181C100.444 92.1246 101.114 91.5115 101.114 90.2698C101.114 83.633 101.114 76.995 101.114 70.3559C101.114 69.1698 100.442 68.5063 99.2385 68.5063C94.353 68.5063 89.4676 68.5063 84.5822 68.4923C84.4238 68.4737 84.2639 68.5118 84.131 68.5998C83.998 68.6878 83.9007 68.8201 83.8564 68.973C83.3329 70.1678 82.7973 71.3504 82.2616 72.5382C81.6736 73.8461 80.6582 74.4853 79.2222 74.4836H61.7638C60.3279 74.4836 59.3211 73.8374 58.7296 72.5312C58.2062 71.3835 57.6688 70.2479 57.1872 69.0862C57.0005 68.6369 56.765 68.4889 56.2747 68.4906C51.5219 68.5115 46.7691 68.5028 42.0163 68.5028C40.4739 68.5028 39.8824 69.0915 39.8824 70.6241V89.9563C39.8824 91.5777 40.4442 92.1333 42.0843 92.1333L70.4703 92.1246ZM90.9891 62.1145H50.0179V65.6187C52.2512 65.6187 54.4497 65.6187 56.6481 65.6187C58.0439 65.6187 59.0577 66.2491 59.6387 67.5344C60.1761 68.7205 60.7204 69.9031 61.2369 71.0978C61.3939 71.4618 61.5859 71.6116 62.0029 71.6116C67.6734 71.5942 73.3434 71.5942 79.0128 71.6116C79.1702 71.6313 79.3294 71.5949 79.4625 71.5089C79.5956 71.4228 79.694 71.2927 79.7404 71.1414C80.2639 69.9466 80.8117 68.7693 81.3404 67.578C81.9249 66.2613 82.9316 65.6187 84.3694 65.6187H90.9891V62.1145ZM88.0823 53.88H52.9352V59.4358H88.0823V53.88ZM55.9502 51.1927H85.0254V45.6316H55.9502V51.1927ZM53.3121 48.9564C52.8148 48.9564 52.3385 48.9791 51.8656 48.9564C50.8484 48.8955 50.2116 49.3396 49.7544 50.2522C47.2751 55.2002 44.7608 60.129 42.2518 65.0648C42.1698 65.2285 42.1105 65.4027 42.0267 65.6047H47.385V64.9429C47.385 63.7017 47.385 62.4611 47.385 61.221C47.385 59.927 47.8229 59.4898 49.1001 59.4794H50.3058V58.7653C50.3058 56.7642 50.3058 54.7596 50.3058 52.7602C50.3058 51.7152 50.7769 51.2484 51.8185 51.2397C52.3105 51.2397 52.8026 51.2397 53.3033 51.2397L53.3121 48.9564ZM87.6845 51.2397C88.2742 51.2397 88.7976 51.2275 89.3193 51.2397C90.1621 51.2624 90.6611 51.7413 90.6785 52.5808C90.6995 53.7111 90.6785 54.8449 90.6785 55.9752C90.6785 57.1055 90.6785 58.2707 90.6785 59.4776H91.4427C91.7045 59.4776 91.9662 59.4672 92.2279 59.4776C93.0392 59.5194 93.5173 59.9705 93.5871 60.7717C93.6133 61.0747 93.5993 61.3813 93.5993 61.686V65.5647H98.9837C98.4516 64.511 97.9543 63.5269 97.4553 62.5429C95.3615 58.4211 93.2736 54.2992 91.1915 50.1773C90.9036 49.6078 90.5599 49.0836 89.8899 49.0191C89.1623 48.9495 88.4225 49.0035 87.6775 49.0035L87.6845 51.2397Z" fill="#FB7800"/>
<path d="M70.5693 79.0292C72.923 79.0292 75.2802 79.0292 77.6287 79.0292C79.1258 79.0292 79.9109 79.8233 79.9144 81.3264C79.9144 82.6744 79.9144 84.0224 79.9144 85.3704C79.9144 86.7185 79.0926 87.5632 77.7177 87.5632C72.9021 87.5724 68.0876 87.5724 63.2743 87.5632C61.9064 87.5632 61.0916 86.7289 61.0864 85.3617C61.0811 83.9945 61.0776 82.5751 61.0864 81.1818C61.0864 79.8564 61.9204 79.0292 63.2499 79.0239C65.6891 79.0292 68.1301 79.0292 70.5693 79.0292ZM63.7385 81.6416V84.9333H77.2693V81.6416H63.7385Z" fill="#FB7800"/>
</g>
<defs>
<clipPath id="clip0_394_315">
<rect width="67" height="52" fill="white" transform="translate(37 43)"/>
</clipPath>
</defs>
</svg>
