<svg width="39" height="39" viewBox="0 0 39 39" fill="none" xmlns="http://www.w3.org/2000/svg">
<circle cx="19.5" cy="19.5" r="19.5" fill="white"/>
<circle cx="19.5" cy="19.5" r="14.5" fill="#D9D9D9"/>
<path d="M24.04 24.68H13.96C13.348 24.68 12.88 24.212 12.88 23.6V17.12C12.88 16.508 13.348 16.04 13.96 16.04H16.12C16.192 16.04 16.3 15.968 16.336 15.932L16.732 15.14C16.876 14.852 17.236 14.636 17.56 14.636H20.44C20.764 14.636 21.124 14.852 21.268 15.14L21.664 15.932C21.7 16.004 21.808 16.04 21.88 16.04H24.04C24.652 16.04 25.12 16.508 25.12 17.12V23.6C25.12 24.212 24.652 24.68 24.04 24.68V24.68ZM13.96 16.76C13.744 16.76 13.6 16.904 13.6 17.12V23.6C13.6 23.816 13.744 23.96 13.96 23.96H24.04C24.256 23.96 24.4 23.816 24.4 23.6V17.12C24.4 16.904 24.256 16.76 24.04 16.76H21.88C21.556 16.76 21.196 16.544 21.052 16.256L20.656 15.464C20.62 15.392 20.512 15.32 20.44 15.32H17.56C17.488 15.32 17.38 15.392 17.344 15.428L16.948 16.22C16.804 16.544 16.444 16.76 16.12 16.76H13.96V16.76Z" fill="black"/>
<path d="M19 23.24C17.2 23.24 15.76 21.8 15.76 20C15.76 18.2 17.2 16.76 19 16.76C20.8 16.76 22.24 18.2 22.24 20C22.24 21.8 20.8 23.24 19 23.24ZM19 17.48C17.596 17.48 16.48 18.596 16.48 20C16.48 21.404 17.596 22.52 19 22.52C20.404 22.52 21.52 21.404 21.52 20C21.52 18.596 20.404 17.48 19 17.48Z" fill="black"/>
<path d="M22.6 17.84C22.7988 17.84 22.96 17.6788 22.96 17.48C22.96 17.2812 22.7988 17.12 22.6 17.12C22.4012 17.12 22.24 17.2812 22.24 17.48C22.24 17.6788 22.4012 17.84 22.6 17.84Z" fill="black"/>
<path d="M14.32 15.32H15.76V15.68H14.32V15.32ZM19 18.56V18.2C17.992 18.2 17.2 18.992 17.2 20H17.56C17.56 19.208 18.208 18.56 19 18.56Z" fill="black"/>
</svg>
