<svg width="72" height="62" viewBox="0 0 72 62" fill="none" xmlns="http://www.w3.org/2000/svg">
<g clip-path="url(#clip0_2619_4974)">
<path d="M71.9995 61.2133C71.3944 61.9444 70.5564 62 69.6322 62C47.1145 61.9842 24.5961 61.9803 2.07712 61.9882C0.397454 61.9882 0.0307145 61.6243 0.00687652 60.0814C-0.0132941 58.0769 -0.0463003 56.0723 0.833873 54.1857C2.88027 49.7876 6.47248 47.2458 11.6527 46.6057C11.6985 46.599 11.7426 46.5847 11.7829 46.5636C11.7939 46.5636 11.7829 46.5248 11.8104 46.4288C8.7701 45.8628 6.51649 44.3266 5.29158 41.6618C4.50795 39.9823 4.42827 38.096 5.06787 36.3658C6.38263 32.6364 10.3856 30.4601 14.6746 31.1255C18.584 31.7302 21.584 35.1176 21.5253 38.8605C21.4979 40.7052 20.7521 42.4799 19.4231 43.8631C18.094 45.2462 16.2696 46.1463 14.2803 46.4002C15.652 46.7792 17.2143 47.0622 18.628 47.6416C20.0418 48.2211 21.3071 49.0902 22.708 49.8735C25.6658 46.4659 29.6467 44.4192 34.6087 43.9105C31.0678 43.3176 28.2531 41.7207 26.3937 38.8875C24.5344 36.0542 24.2355 33.0154 25.5044 29.9076C27.3381 25.4572 32.1552 22.7554 37.163 23.3112C42.7044 23.9278 46.7129 27.7094 47.2043 32.6634C47.3527 33.9951 47.2071 35.3406 46.7761 36.6193C46.345 37.898 45.6375 39.0837 44.6958 40.1053C42.7814 42.248 40.2858 43.4827 37.2785 43.9038C39.6455 44.1139 41.9435 44.7534 44.0394 45.7853C46.1368 46.841 47.9721 48.286 49.4286 50.0285C51.6826 48.0566 54.5777 46.8171 57.671 46.4995C54.8673 45.9066 52.6632 44.5692 51.3833 42.1772C50.0887 39.7533 50.1529 37.3091 51.5832 34.9475C52.5125 33.4106 53.9859 32.2117 55.759 31.5499C57.5321 30.8881 59.4982 30.8031 61.3311 31.3091C63.1734 31.8192 64.7719 32.89 65.8639 34.3453C66.9559 35.8006 67.4765 37.5539 67.3401 39.317C67.0669 42.942 64.067 45.8359 59.9265 46.4271C60.0512 46.4962 60.141 46.5871 60.2364 46.5956C65.7466 46.8954 71.3229 51.3609 71.9023 56.8708C71.9023 56.8994 71.9665 56.923 71.9995 56.95V61.2133ZM50.0539 59.3739C49.975 52.0566 43.4379 46.257 35.597 46.5012C27.5655 46.7522 21.8682 52.9022 21.9892 59.3739H50.0539ZM27.571 33.5763C27.571 35.1084 28.0654 36.6061 28.9918 37.8801C29.9181 39.1542 31.2348 40.1473 32.7755 40.7341C34.3161 41.3208 36.0116 41.4749 37.6475 41.1767C39.2834 40.8786 40.7864 40.1416 41.9665 39.0589C43.1466 37.9763 43.9508 36.5966 44.2775 35.0942C44.6042 33.5918 44.4388 32.0341 43.802 30.6181C43.1653 29.2021 42.0859 27.9912 40.7002 27.1386C39.3145 26.286 37.6848 25.8298 36.017 25.8278C33.7797 25.8305 31.6348 26.6474 30.0518 28.0996C28.4688 29.5519 27.5768 31.5212 27.571 33.5763ZM2.86561 59.3672H19.1378C19.1756 57.0308 19.7512 54.7282 20.8266 52.6108C20.911 52.4423 20.7808 52.0869 20.6213 51.937C17.7057 49.1425 12.7364 48.2918 8.88562 49.9038C4.73964 51.6355 2.49337 55.1543 2.86561 59.3672ZM69.1866 59.384C69.1866 58.9881 69.1866 58.6277 69.1866 58.2672C69.1671 56.4171 68.5421 54.6152 67.3929 53.0958C66.2438 51.5763 64.6236 50.4096 62.743 49.7472C58.8043 48.339 53.9835 49.2856 51.2953 52.0162C51.2281 52.1106 51.1839 52.2174 51.1659 52.3291C51.1478 52.4407 51.1563 52.5546 51.1908 52.663C51.3851 53.2104 51.7409 53.7191 51.8802 54.275C52.3185 55.9595 52.6871 57.6439 53.0941 59.384H69.1866ZM13.1123 33.5763C10.0574 33.5544 7.47368 35.9127 7.46634 38.7308C7.46634 41.5203 9.96383 43.8499 13.0243 43.9004C16.0847 43.951 18.6665 41.6095 18.7087 38.778C18.7454 35.9767 16.1874 33.5982 13.1123 33.5763ZM58.9436 33.5763C57.4694 33.59 56.0601 34.1352 55.0195 35.0945C53.9788 36.0537 53.39 37.3502 53.3802 38.7044C53.3703 40.0587 53.9401 41.3623 54.9667 42.3342C55.9934 43.3062 57.3946 43.8686 58.8684 43.9004C61.9142 43.9459 64.5089 41.6028 64.5437 38.7729C64.5767 35.97 62.0096 33.5932 58.9436 33.5763Z" fill="#3A43AF"/>
<path d="M28.4828 18.3606C28.7908 16.6879 29.1264 14.931 29.418 13.1691C29.4314 13.0421 29.4167 12.914 29.3748 12.7924C29.3329 12.6708 29.2646 12.5583 29.1741 12.4616C27.9217 11.2993 26.6454 10.1589 25.36 9.02866C24.8631 8.59238 24.5697 8.10389 24.7989 7.48064C25.0281 6.85739 25.5984 6.6384 26.2658 6.56597C27.9822 6.3571 29.693 6.11285 31.4002 5.89219C31.5822 5.88035 31.7568 5.82094 31.9034 5.72096C32.0499 5.62098 32.1622 5.4846 32.2272 5.32789C32.9808 3.85231 33.7895 2.40198 34.556 0.931447C34.842 0.380628 35.2454 -0.00342841 35.9312 -0.0101663C36.617 -0.0169041 37.0314 0.365468 37.3175 0.912918C38.0858 2.38345 38.8908 3.83546 39.6426 5.31273C39.7154 5.47847 39.838 5.62176 39.9962 5.72586C40.1543 5.82996 40.3414 5.89057 40.5356 5.90061C42.2263 6.11117 43.9151 6.35036 45.6076 6.55755C46.2769 6.6384 46.8472 6.82706 47.0911 7.45874C47.346 8.12242 47.0086 8.61091 46.5006 9.05729C45.2849 10.1303 44.1003 11.2336 42.8681 12.2915C42.6975 12.4147 42.5692 12.5805 42.4986 12.769C42.428 12.9576 42.4181 13.1608 42.4702 13.3544C42.7837 14.9175 43.046 16.4891 43.3669 18.0523C43.4916 18.6604 43.3889 19.1775 42.8461 19.5498C42.3033 19.9221 41.711 19.8311 41.1316 19.5498C39.5638 18.7867 37.9831 18.0422 36.4227 17.2674C36.2809 17.1832 36.1156 17.1384 35.9468 17.1384C35.778 17.1384 35.6128 17.1832 35.471 17.2674C33.8708 18.0658 32.259 18.8446 30.6355 19.6037C29.5426 20.1225 28.4406 19.5144 28.4828 18.3606ZM35.9496 4.22625C35.3738 5.31105 34.8274 6.3251 34.2992 7.34588C34.1846 7.60526 33.9948 7.83082 33.7504 7.99802C33.506 8.16522 33.2163 8.26767 32.913 8.29423C31.6972 8.43741 30.487 8.63112 29.3739 8.77936C30.1899 9.58621 31.0004 10.4133 31.8458 11.21C32.306 11.6463 32.5096 12.1062 32.383 12.7261C32.152 13.8378 31.9705 14.9563 31.7541 16.1556C32.836 15.6368 33.85 15.1972 34.8127 14.675C35.6067 14.2421 36.309 14.2438 37.1048 14.675C38.0546 15.1938 39.0613 15.6233 40.1542 16.1455C40.0185 15.3791 39.9122 14.744 39.7875 14.1124C39.2942 11.5065 39.186 12.0422 41.2343 10.1741C41.7165 9.73445 42.1695 9.26617 42.6572 8.78778C41.4763 8.63112 40.3449 8.45089 39.2062 8.33971C38.3719 8.2538 37.8566 7.88322 37.5174 7.17743C37.0516 6.20213 36.4997 5.25546 35.9496 4.22962V4.22625Z" fill="#3A43AF"/>
<path d="M6.29148 24.8947C6.45834 24.0154 6.63621 22.9542 6.86909 21.9031C6.98095 21.3978 6.89476 21.0255 6.44551 20.665C5.65519 20.0266 4.93454 19.3174 4.16989 18.6521C3.6803 18.2276 3.47126 17.7273 3.68763 17.1361C3.90401 16.5448 4.42111 16.3393 5.0409 16.2618C6.10627 16.1304 7.16798 15.9721 8.23703 15.8576C8.45506 15.8487 8.66512 15.7796 8.83979 15.6595C9.01447 15.5393 9.14565 15.3735 9.21622 15.1838C9.64897 14.2826 10.1642 13.4151 10.6282 12.5257C10.9142 11.9782 11.3341 11.606 12.0236 11.6144C12.6801 11.6144 13.089 11.9816 13.364 12.5038C13.8518 13.4302 14.3744 14.3415 14.831 15.2798C14.8956 15.4368 15.009 15.5729 15.1569 15.6714C15.3048 15.7699 15.481 15.8264 15.6635 15.834C16.7527 15.962 17.8382 16.122 18.9275 16.2534C19.5803 16.3309 20.101 16.5701 20.3247 17.1681C20.5484 17.7661 20.2752 18.2495 19.8021 18.6656C18.9916 19.3815 18.2032 20.1159 17.378 20.8183C17.2444 20.9164 17.1463 21.0494 17.0965 21.1997C17.0468 21.3501 17.0477 21.5107 17.0993 21.6605C17.3285 22.6712 17.4898 23.6903 17.6861 24.7044C17.7961 25.2754 17.6861 25.7875 17.1708 26.153C16.6555 26.5185 16.0944 26.4899 15.5205 26.2103C14.5119 25.7167 13.4832 25.2535 12.4875 24.738C12.3368 24.6458 12.1593 24.5973 11.9782 24.5988C11.797 24.6003 11.6206 24.6517 11.4717 24.7465C10.4546 25.272 9.42098 25.7701 8.37089 26.2406C7.30184 26.7308 6.2658 26.1311 6.29148 24.8947ZM14.4551 22.7571C13.6097 20.8789 14.2717 19.5566 15.9752 18.4735C13.8151 18.5999 12.5535 17.7189 12.1006 15.8306C11.578 16.6122 11.2791 17.4713 10.6337 17.8974C9.9882 18.3236 8.98334 18.3489 7.99681 18.5813C9.80667 19.56 10.3164 20.948 9.52061 22.7925C11.1984 21.5611 12.7736 21.5275 14.4551 22.7571Z" fill="#3A43AF"/>
<path d="M54.0972 24.9081C54.2567 24.0474 54.4089 23.0249 54.6473 22.0193C54.7903 21.4112 54.6803 20.9833 54.143 20.5656C53.3747 19.971 52.6962 19.2803 51.9664 18.6436C51.4768 18.2174 51.2751 17.7155 51.497 17.1276C51.7189 16.5397 52.2305 16.3393 52.8576 16.2635C53.9248 16.1321 54.9865 15.9805 56.0537 15.8541C56.4993 15.8019 56.7964 15.6621 56.9981 15.2393C57.4455 14.2977 57.9828 13.3864 58.4742 12.4684C58.7548 11.9394 59.1857 11.6127 59.8403 11.6261C60.4674 11.6346 60.8782 11.9714 61.1441 12.4684C61.6392 13.3915 62.1544 14.3061 62.611 15.2444C62.6854 15.4202 62.8143 15.5721 62.9819 15.6811C63.1495 15.7901 63.3483 15.8515 63.5535 15.8575C64.6207 15.9822 65.6825 16.1371 66.7497 16.2651C67.4025 16.3443 67.9196 16.5936 68.1378 17.1899C68.356 17.7862 68.1066 18.236 67.6518 18.6402C66.8267 19.3713 65.9887 20.0922 65.1984 20.8553C65.0019 21.0661 64.9043 21.3399 64.927 21.6167C65.0773 22.6577 65.2937 23.6919 65.4973 24.7279C65.6073 25.2989 65.4973 25.8076 64.971 26.1715C64.4447 26.5353 63.8891 26.4932 63.3207 26.217C62.3121 25.7234 61.2871 25.2568 60.2877 24.7464C60.1478 24.6583 59.9826 24.6101 59.8129 24.608C59.6432 24.6059 59.4767 24.65 59.3342 24.7346C58.2945 25.2669 57.242 25.7807 56.1711 26.2506C55.1002 26.7206 54.0623 26.1209 54.0972 24.9081ZM62.1654 22.8312C62.1049 21.8542 61.8207 20.9985 62.0719 20.3045C62.3231 19.6105 63.1098 19.0934 63.7919 18.3572C61.5915 18.6301 60.3831 17.6835 59.8091 15.812C59.259 17.7087 57.9901 18.5964 55.8227 18.4785C57.6252 19.5549 58.135 20.9429 57.3391 22.7907C59.0041 21.5611 60.5793 21.5274 62.1599 22.8312H62.1654Z" fill="#3A43AF"/>
<path d="M41.529 50.5709C41.7915 50.6384 42.044 50.7351 42.2809 50.859C43.8993 51.8588 45.2083 53.2266 46.0803 54.8292C46.4763 55.5502 46.2746 56.2627 45.5962 56.6282C44.9177 56.9938 44.1017 56.8388 43.6763 56.1229C42.9198 54.8349 41.8575 53.7198 40.5682 52.8601C40.3109 52.701 40.1242 52.4624 40.0418 52.1878C39.9594 51.9131 39.9867 51.6204 40.1189 51.3626C40.3353 50.8556 40.7736 50.5979 41.529 50.5709Z" fill="#3A43AF"/>
<path d="M36.0266 51.649C35.7491 51.653 35.4766 51.5811 35.2438 51.4425C35.0109 51.3039 34.8281 51.1048 34.7188 50.8705C34.6094 50.6362 34.5783 50.3774 34.6295 50.1268C34.6806 49.8763 34.8118 49.6454 35.0062 49.4635C35.2006 49.2816 35.4494 49.1569 35.7212 49.1053C35.9929 49.0536 36.2752 49.0774 36.5322 49.1735C36.7892 49.2697 37.0093 49.4338 37.1645 49.6452C37.3197 49.8565 37.4029 50.1054 37.4037 50.3603C37.3926 50.6948 37.2447 51.0132 36.9895 51.2521C36.7343 51.4909 36.3905 51.6326 36.0266 51.649Z" fill="#3A43AF"/>
</g>
<defs>
<clipPath id="clip0_2619_4974">
<rect width="72" height="62" fill="white"/>
</clipPath>
</defs>
</svg>
