<svg width="82" height="56" viewBox="0 0 82 56" fill="none" xmlns="http://www.w3.org/2000/svg">
<path d="M82 42.0132C80.64 42.0003 79.282 41.9766 77.9219 41.9744C72.6363 41.9744 67.3506 41.9744 62.004 41.9744C62.0487 42.9032 62.1646 43.7953 62.1158 44.6789C62.0365 46.0796 62.0426 47.5342 61.6665 48.8574C60.5667 52.7191 57.3669 55.152 53.3782 55.1757C45.0757 55.2253 36.7732 55.2404 28.4707 55.1757C23.3233 55.1326 19.729 51.1589 19.6965 45.709C19.6965 44.4979 19.6965 43.2868 19.6965 41.9981H0.0908288C-0.584107 36.2939 2.44904 27.6589 10.9833 24.2778C8.27138 22.0302 6.88898 19.1296 7.08007 15.5071C7.22238 12.7897 8.29984 10.5011 10.2433 8.69737C12.0792 6.99212 14.4703 6.11326 16.908 6.24768C19.3457 6.38209 21.6377 7.51917 23.2968 9.41713C26.5719 13.1345 27.0435 19.9398 22.0141 24.1593L27.3586 27.465C28.3954 26.7452 29.5278 25.8466 30.7557 25.1333C31.9836 24.42 33.305 23.8921 34.6488 23.252C31.0342 20.6661 29.0805 17.0867 29.0602 12.4772C29.044 8.98399 30.28 5.96703 32.6626 3.52761C37.4237 -1.35555 45.0066 -1.1142 49.5462 3.91119C53.9495 8.78573 54.3337 18.2805 47.1066 23.3533C49.7967 24.2291 52.2965 25.661 54.4618 27.5663L59.967 24.127C57.375 21.9892 55.9987 19.0649 56.2183 15.4036C56.3768 12.7789 57.438 10.5765 59.2575 8.79435C62.9595 5.18262 68.851 5.42828 72.3212 9.28137C73.2328 10.3027 73.9309 11.5165 74.3697 12.8435C74.8085 14.1704 74.9782 15.5806 74.8677 16.9818C74.7572 18.383 74.3689 19.7437 73.7283 20.9749C73.0877 22.2062 72.2092 23.2803 71.1502 24.127C72.618 25.0601 74.226 25.8789 75.6105 27.0038C79.1783 29.9023 81.2356 33.7898 81.8496 38.5221C81.8618 38.6105 81.9492 38.6902 82 38.7721V42.0132ZM40.8614 52.4066H41.268C45.5372 52.3915 49.8064 52.4476 54.0755 52.3333C56.8058 52.2601 59.2087 49.6504 59.4283 46.7649C59.8227 41.565 58.5439 36.8822 55.5657 32.7188C50.3532 25.4501 40.4264 22.9891 32.7622 27.1353C26.887 30.3117 23.4249 35.3953 22.4898 42.3084C22.2332 44.0396 22.2477 45.8037 22.5324 47.5299C23.0956 50.5792 25.527 52.3851 28.6313 52.4023C32.6971 52.4217 36.7793 52.4066 40.8614 52.4066ZM40.8614 22.3319C42.6883 22.328 44.4732 21.7503 45.9905 20.6717C47.5078 19.5931 48.6894 18.0621 49.3862 16.2719C50.083 14.4817 50.2637 12.5128 49.9054 10.6139C49.547 8.71496 48.6658 6.9712 47.373 5.6029C46.0802 4.23461 44.4338 3.30317 42.6419 2.92625C40.8499 2.54934 38.9928 2.74385 37.3051 3.48523C35.6174 4.22661 34.1748 5.48159 33.1596 7.09162C32.1444 8.70166 31.6022 10.5945 31.6014 12.5311C31.5709 17.8926 35.771 22.3297 40.8675 22.3319H40.8614ZM79.345 39.16C78.4159 33.2209 75.5088 29.0166 70.2496 26.9672C65.275 25.0277 60.6948 26.1052 56.5395 29.5704C56.5924 29.672 56.6515 29.7699 56.7163 29.8635C58.847 32.4048 60.4129 35.4204 61.2986 38.6881C61.4409 39.2117 61.7275 39.16 62.0711 39.16H79.3511H79.345ZM25.2993 29.5618C20.8797 25.6828 14.9455 24.9932 10.04 27.674C5.13455 30.3548 2.6686 35.8629 2.74178 39.16C8.47467 39.16 14.2096 39.16 19.9425 39.1363C20.1275 39.1363 20.3897 38.8238 20.4771 38.5976C20.7983 37.7636 21.0281 36.8908 21.3533 36.059C22.2905 33.6627 23.6587 31.5508 25.2993 29.5618ZM23.0773 16.563C23.3761 12.9384 20.7252 9.15854 16.6064 8.97967C15.7254 8.94156 14.846 9.08792 14.0184 9.41037C13.1908 9.73283 12.4312 10.2251 11.7833 10.8589C11.1353 11.4928 10.6115 12.2558 10.2419 13.1044C9.87233 13.953 9.66418 14.8705 9.62938 15.8045C9.44438 19.2998 11.8229 23.0128 16.086 23.2671C17.8503 23.3546 19.5756 22.6987 20.8854 21.4428C22.1952 20.1868 22.9831 18.4326 23.0773 16.563ZM72.2622 16.494C72.559 12.5849 69.6702 9.18224 65.7141 8.98614C62.3069 8.81805 59.0298 11.5269 58.8021 15.7915C58.6131 19.4119 61.0648 23.0646 65.3177 23.2714C67.0849 23.3427 68.807 22.6701 70.108 21.4003C71.4091 20.1306 72.1835 18.3668 72.2622 16.494Z" fill="#3A43AF"/>
</svg>
