<svg width="12" height="16" viewBox="0 0 12 16" fill="none" xmlns="http://www.w3.org/2000/svg">
<g clip-path="url(#clip0_2661_4949)">
<path d="M4.03806 8.566C3.89884 9.10698 3.5706 9.57053 3.1208 9.86139C2.67101 10.1522 2.13383 10.2483 1.61968 10.1298C0.678589 9.9431 -0.0108145 9.00948 0.000128452 7.97082C0.0044207 7.46989 0.169749 6.9857 0.468498 6.59912C0.767247 6.21254 1.18132 5.94699 1.64157 5.84682C2.1535 5.7411 2.684 5.84438 3.12788 6.13619C3.57177 6.42801 3.89663 6.88705 4.03806 7.42231L11.3479 7.42231C11.4247 7.42038 11.5015 7.42428 11.5777 7.43398C11.7051 7.4624 11.8181 7.54016 11.8949 7.65223C11.9717 7.76431 12.0069 7.90276 11.9936 8.04084C11.9774 8.18627 11.9116 8.32024 11.8086 8.41713C11.7056 8.51401 11.5728 8.56702 11.4355 8.566H4.03806ZM2.04645 9.04449C2.18377 9.05999 2.3226 9.04452 2.45394 8.9991C2.58529 8.95367 2.70621 8.87929 2.80885 8.7808C2.9115 8.68231 2.99358 8.56189 3.04977 8.42738C3.10595 8.29286 3.13499 8.14725 3.13499 7.99999C3.13499 7.85274 3.10595 7.70713 3.04977 7.57261C2.99358 7.4381 2.9115 7.31768 2.80885 7.21919C2.70621 7.1207 2.58529 7.04632 2.45394 7.00089C2.3226 6.95547 2.18377 6.94 2.04645 6.9555C1.91811 6.95378 1.79074 6.97947 1.67185 7.03105C1.55296 7.08264 1.44495 7.15908 1.35419 7.25588C1.26343 7.35267 1.19175 7.46786 1.14338 7.59465C1.09501 7.72145 1.07092 7.85728 1.07253 7.99416C1.07167 8.13137 1.09619 8.26741 1.14469 8.3945C1.1932 8.52158 1.26473 8.63722 1.35519 8.73478C1.44566 8.83234 1.55328 8.90992 1.6719 8.96306C1.79052 9.01621 1.9178 9.04388 2.04645 9.04449Z" fill="#BDBDBD"/>
<path d="M4.01605 14.3895H0.700347C0.251687 14.3895 0 14.1795 0 13.8177C0 13.4559 0.251687 13.2458 0.689404 13.2458H3.88473C3.98322 13.2458 4.02699 13.2225 4.05982 13.1175C4.19665 12.6837 4.45826 12.307 4.80742 12.041C5.15659 11.775 5.57553 11.6332 6.00463 11.6358C6.43373 11.6384 6.85114 11.7852 7.19746 12.0554C7.54379 12.3256 7.80139 12.7054 7.93361 13.1408C7.94356 13.1778 7.95829 13.2132 7.97738 13.2458H11.4463C11.5541 13.2398 11.661 13.2705 11.7515 13.3334C11.8419 13.3963 11.9113 13.4883 11.9497 13.5959C11.9941 13.6955 12.0085 13.8074 11.9909 13.9161C11.9732 14.0247 11.9244 14.1249 11.8512 14.2028C11.7937 14.267 11.7237 14.3169 11.6462 14.3492C11.5687 14.3814 11.4855 14.3952 11.4025 14.3895H8.11964C8.0321 14.3895 7.97738 14.4012 7.94456 14.5179C7.80829 14.9538 7.54575 15.3324 7.19478 15.5989C6.84381 15.8655 6.42255 16.0063 5.9917 16.0011C5.56085 15.996 5.14267 15.845 4.79744 15.57C4.45221 15.2951 4.19776 14.9103 4.07076 14.4712C4.04997 14.446 4.03164 14.4187 4.01605 14.3895ZM6.98158 13.806C6.9794 13.6006 6.92016 13.4005 6.81135 13.231C6.70254 13.0615 6.54904 12.9302 6.37026 12.8537C6.19149 12.7773 5.99547 12.759 5.80698 12.8014C5.6185 12.8437 5.44603 12.9447 5.31136 13.0916C5.1767 13.2385 5.0859 13.4246 5.05044 13.6266C5.01499 13.8285 5.03647 14.0371 5.11217 14.2259C5.18787 14.4148 5.31439 14.5756 5.47573 14.6878C5.63708 14.8 5.826 14.8586 6.0186 14.8563C6.27672 14.8526 6.52296 14.7401 6.70343 14.5432C6.88391 14.3464 6.98392 14.0813 6.98158 13.806Z" fill="#BDBDBD"/>
<path d="M9.81509 2.75419C9.31172 3.94456 8.67703 4.41138 7.68123 4.3647C7.04654 4.32968 6.18205 3.89788 5.85376 2.75419L0.655874 2.75419C0.571387 2.75797 0.486795 2.75012 0.404187 2.73085C0.283504 2.69809 0.178109 2.61964 0.107643 2.51014C0.0371777 2.40063 0.00644916 2.26754 0.021185 2.13567C0.0333122 2.00077 0.0890894 1.87457 0.178943 1.77875C0.268797 1.68292 0.387124 1.62344 0.513616 1.6105C0.568194 1.60467 0.623182 1.60467 0.67776 1.6105L5.84282 1.6105C6.23676 0.536834 6.92616 -0.0116711 7.85631 -9.53674e-07C8.55666 0.0116692 9.45398 0.431801 9.80415 1.6105L11.4128 1.6105C11.752 1.6105 11.9927 1.85558 11.9927 2.18235C11.9927 2.50912 11.752 2.75419 11.4128 2.75419H9.81509ZM7.81254 1.14369C7.61993 1.14601 7.4323 1.20919 7.27336 1.32523C7.11442 1.44128 6.99132 1.60498 6.91962 1.79564C6.84792 1.9863 6.83083 2.19535 6.87054 2.39636C6.91024 2.59737 7.00494 2.78131 7.14266 2.92493C7.28038 3.06854 7.45494 3.16538 7.64427 3.20319C7.8336 3.241 8.02919 3.2181 8.2063 3.13736C8.38342 3.05663 8.53412 2.9217 8.63933 2.74963C8.74455 2.57756 8.79955 2.37609 8.7974 2.17068C8.79394 1.8954 8.68837 1.63279 8.5038 1.44032C8.31922 1.24785 8.07067 1.1412 7.81254 1.14369Z" fill="#BDBDBD"/>
</g>
<defs>
<clipPath id="clip0_2661_4949">
<rect width="16" height="12" fill="white" transform="translate(0 16) rotate(-90)"/>
</clipPath>
</defs>
</svg>
