<svg width="596" height="390" viewBox="0 0 596 390" fill="none" xmlns="http://www.w3.org/2000/svg">
<g clip-path="url(#clip0_472_664)">
<path d="M22.4934 238.054C19.2848 302.091 62.0372 334.971 123.7 342.784C192.87 351.544 263.901 339.73 332.768 333.717C358.722 331.452 384.747 329.749 410.81 329.899C435.369 330.034 461.954 336.806 486.081 333.058C546.385 323.69 577.471 261.362 568.074 207.003C562.247 173.296 540.362 141.09 501.628 143.225C474.402 144.732 450.288 156.558 424.293 162.963C389.878 171.394 353.793 170.044 320.104 159.065C303.336 153.573 287.344 145.783 271.026 138.96C238.525 125.393 204.157 115.603 169.158 115.066C134.158 114.529 98.3928 123.718 70.1007 145.253C40.2641 167.954 24.2872 202.308 22.4934 238.054Z" stroke="#F0F0F0" stroke-width="4.26" stroke-miterlimit="10"/>
<path d="M556.899 257.369C560.09 320.626 517.561 353.114 456.221 360.835C387.413 369.488 316.763 357.817 248.245 351.88C222.434 349.643 196.539 347.961 170.613 348.103C146.186 348.235 119.723 354.923 95.7339 351.221C35.7374 341.962 4.82194 280.388 14.1602 226.685C18.5265 201.598 28.1701 173.843 49.8517 158.606C71.6656 143.284 97.029 147.203 120.934 153.858C164.468 165.974 211.902 188.71 258.029 179.816C284.463 174.726 307.504 159.744 332.61 150.783C357.643 141.851 384.388 136.277 411.001 135.87C445.807 135.328 481.396 144.421 509.541 165.691C539.222 188.12 555.118 222.056 556.899 257.369Z" fill="#F0F0F0"/>
<path d="M512.851 310.423C512.851 310.423 488.875 327.334 461.333 312.68L487.091 298.304L512.851 310.423Z" fill="#6F3428"/>
<path d="M336.323 197.396C336.323 197.396 312.995 241.153 320.292 254.079L346.854 239.318L336.323 197.396Z" fill="#6F3428"/>
<path d="M326.279 241.818C323.305 239.58 320.487 237.14 317.847 234.516C312.532 229.241 307.639 223.12 303.178 216.587C300.183 212.202 297.384 207.622 294.781 202.987C287.283 189.619 281.423 175.782 277.257 164.702C272.906 153.143 270.387 144.569 269.705 142.607C269.666 142.464 269.611 142.326 269.542 142.194L282.161 105.957C288.267 96.1901 291.677 127.889 291.677 127.889C293.359 126.902 295.4 124.006 296.603 122.443C297.959 120.662 299.003 123.461 299.186 124.479C300.239 130.307 295.552 141.388 295.552 141.388L325.641 185.491C327.48 188.187 329.534 190.731 331.781 193.098C333.215 194.619 334.73 196.063 336.317 197.424C338.997 208.741 338.725 230.607 326.279 241.818Z" fill="#F9B384"/>
<path opacity="0.6" d="M326.28 241.817C323.305 239.58 320.487 237.14 317.847 234.516C327.292 223.695 334.514 205.723 336.328 197.401C337.76 198.928 334.743 196.042 336.328 197.401C338.997 208.741 338.725 230.607 326.28 241.817Z" fill="#E28B6D"/>
<path d="M512.854 310.428C496.416 307.227 483.46 307.433 472.524 309.604C468.722 310.358 464.98 311.388 461.328 312.686L458.02 324.548L451.488 347.999L447.247 363.235L443.384 377.072L441.214 384.875H324.618L343.065 264.587L320.3 254.082C321.872 251.702 323.23 249.188 324.358 246.569C331.269 230.997 334.981 207.393 336.317 197.399C342.864 203.041 350.556 207.195 358.864 209.574C368.787 212.406 380.747 214.859 391.958 214.6L393.108 214.567C419.008 213.549 430.565 221.438 430.565 221.438C436.417 222.598 451.702 228.469 465.035 234.341C470.918 236.914 476.419 239.497 480.585 241.667C486.119 244.563 490.974 248.603 494.826 253.52C498.679 258.437 501.44 264.118 502.928 270.186L512.854 310.428Z" fill="#95239C"/>
<path d="M472.524 309.604C468.722 310.358 464.98 311.388 461.328 312.686L468.348 287.491L472.524 309.604Z" fill="#55105B"/>
<path opacity="0.3" d="M303.178 216.577C300.183 212.192 297.835 208.23 292.209 198.241C301.038 195.217 306.313 208.23 303.178 216.577Z" fill="#EE6F57"/>
<path d="M459.292 320.007L451.493 348.001L447.252 363.238L342.62 371.213L330.727 350.401C407.224 348.821 439.234 337.916 459.292 320.007Z" fill="#55105B"/>
<path opacity="0.6" d="M277.26 164.691C272.909 153.132 270.39 144.559 269.708 142.596L289.285 130.47C290.041 141.505 281.313 157.242 277.26 164.691Z" fill="#E28B6D"/>
<path d="M401.085 241.733C402.238 245.757 404.623 249.317 407.906 251.913C411.175 254.461 415.02 256.166 419.102 256.878C423.192 257.609 427.393 257.429 431.405 256.349C433.423 255.817 435.371 255.048 437.209 254.058C439.077 253.082 440.841 251.917 442.473 250.582L443.051 251.2C441.533 252.796 439.824 254.198 437.962 255.374C436.071 256.541 434.05 257.481 431.939 258.174C427.665 259.538 423.12 259.825 418.708 259.008C414.324 258.191 410.079 256.308 406.721 253.32C405.037 251.841 403.6 250.101 402.466 248.167C401.357 246.238 400.606 244.123 400.25 241.927L401.085 241.733Z" fill="#55105B"/>
<path d="M448.641 200.264L445.397 225.627C444.798 230.318 442.436 234.605 438.791 237.618C435.146 240.63 430.491 242.142 425.771 241.847C421.052 241.552 416.622 239.471 413.381 236.027C410.14 232.583 408.331 228.035 408.321 223.306C408.324 222.318 408.402 221.332 408.555 220.356L409.141 216.643L411.431 202.178L424.321 201.516L448.641 200.264Z" fill="#F9B384"/>
<path d="M403.494 158.482C403.855 154.741 405.604 150.285 407.596 146.243C409.474 142.438 412.249 139.146 415.682 136.652C419.115 134.158 423.104 132.537 427.303 131.928C440.104 130.08 456.659 131.882 465.671 144.179C475.834 158.044 467.389 185.766 456.493 188.13C445.598 190.494 403.494 158.482 403.494 158.482Z" fill="#102048"/>
<path d="M436.868 206.777C432.517 210.899 422.492 220.547 408.548 220.364L411.423 202.186L424.314 201.524L436.868 206.777Z" fill="#E28B6D"/>
<path d="M455.422 165.017L453.481 175.12L453.002 177.594L451.091 187.527L449.997 193.225L448.641 200.256L442.01 204.239C442.01 204.239 440.199 205.456 436.868 206.769C431.843 208.767 423.382 210.981 412.497 209.548C411.765 209.456 411.045 209.285 410.349 209.039C405.227 207.293 402.601 201.913 401.444 195.182C400.596 190.245 400.533 184.59 400.846 179.131C401.334 170.568 402.757 162.482 403.494 158.469C414.899 148.289 430.466 146.421 442.013 144.164L455.422 165.017Z" fill="#F9B384"/>
<path d="M403.494 158.482C421.659 144.179 446.129 158.667 446.129 158.667C446.129 158.667 442.389 181.19 449.623 179.332C456.857 177.474 464.195 162.414 464.195 162.414L447.638 138.54L411.42 144.772L403.494 158.482Z" fill="#102048"/>
<path d="M448.687 180.07C452.249 173.82 459.173 171.815 462.898 176.556C466.623 181.297 466.765 196.215 448.45 192.993L448.687 180.07Z" fill="#F9B384"/>
<path d="M418.224 175.133C417.046 178.319 415.222 181.157 414.033 184.145C413.896 184.506 413.718 184.908 413.631 185.239C413.53 185.513 413.498 185.807 413.537 186.097C413.569 186.34 413.685 186.564 413.865 186.73C414.114 186.94 414.396 187.107 414.7 187.224C416.066 187.751 417.753 187.878 419.405 188.041L419.423 188.677C417.753 188.899 416.038 189.097 414.219 188.57C413.728 188.43 413.269 188.195 412.868 187.878C412.41 187.5 412.095 186.977 411.977 186.394C411.882 185.858 411.919 185.307 412.084 184.789C412.205 184.361 412.355 183.942 412.532 183.534C413.868 180.327 415.84 177.627 417.657 174.848L418.224 175.133Z" fill="#E28B6D"/>
<path d="M430.412 175.805C429.967 177.306 428.741 178.268 427.674 177.953C426.608 177.637 426.104 176.171 426.55 174.662C426.995 173.153 428.219 172.196 429.285 172.512C430.351 172.827 430.855 174.293 430.412 175.805Z" fill="#102048"/>
<path d="M411.12 174.893C411.564 173.39 411.061 171.916 409.995 171.601C408.929 171.285 407.704 172.248 407.26 173.751C406.815 175.253 407.319 176.727 408.385 177.043C409.451 177.358 410.675 176.396 411.12 174.893Z" fill="#102048"/>
<path d="M423.624 170.008C424.556 169.115 425.65 168.41 426.848 167.931C428.099 167.428 429.455 167.245 430.794 167.399C432.132 167.571 433.405 168.079 434.494 168.875C435.537 169.632 436.424 170.582 437.107 171.675L436.629 172.094C435.715 171.346 434.744 170.669 433.726 170.071C432.759 169.519 431.696 169.154 430.593 168.997C429.486 168.864 428.362 168.946 427.286 169.239C426.146 169.56 425.039 169.986 423.978 170.511L423.624 170.008Z" fill="#102048"/>
<path d="M414.062 170.094C413.659 169.447 413.096 168.915 412.428 168.55C411.759 168.186 411.007 168 410.245 168.012C409.488 168.023 408.741 168.189 408.052 168.501C407.306 168.848 406.601 169.275 405.947 169.773L405.438 169.376C405.875 168.506 406.536 167.767 407.352 167.236C408.209 166.673 409.213 166.377 410.237 166.384C411.28 166.386 412.294 166.725 413.128 167.351C413.539 167.652 413.885 168.032 414.148 168.469C414.41 168.906 414.582 169.391 414.655 169.896L414.062 170.094Z" fill="#102048"/>
<path d="M411.316 193.38L423.125 193.635C423.125 193.635 416.578 202.516 411.769 194.25L411.316 193.38Z" fill="white"/>
<path d="M451.517 184.837C451.522 183.802 451.709 182.776 452.069 181.806C452.43 180.771 453.042 179.843 453.85 179.103C454.721 178.314 455.863 177.89 457.038 177.92C458.141 177.978 459.19 178.418 460.005 179.164L459.684 179.717C458.763 179.439 457.878 179.251 457.066 179.35C456.268 179.45 455.518 179.789 454.916 180.322C454.269 180.911 453.731 181.608 453.326 182.384C452.883 183.185 452.522 184.056 452.135 184.959L451.517 184.837Z" fill="#E28B6D"/>
<path opacity="0.3" d="M436.796 196.696C441.39 196.696 445.114 192.972 445.114 188.377C445.114 183.782 441.39 180.058 436.796 180.058C432.203 180.058 428.479 183.782 428.479 188.377C428.479 192.972 432.203 196.696 436.796 196.696Z" fill="#EE6F57"/>
<path opacity="0.3" d="M407.283 187.252C407.279 189.025 406.712 190.75 405.662 192.178C404.613 193.607 403.136 194.664 401.446 195.197C400.599 190.26 400.535 184.605 400.848 179.146C402.678 179.572 404.31 180.605 405.479 182.077C406.647 183.549 407.283 185.373 407.283 187.252Z" fill="#EE6F57"/>
<path d="M239.919 152.639C239.919 152.639 263.603 164.231 259.212 183.468L243.548 187.853L239.919 152.639Z" fill="#102048"/>
<path d="M239.919 152.639C242.464 150.134 255.494 135.73 255.041 117.73C254.695 104.079 260.746 110.246 261.525 119.664C261.525 119.664 264.853 100.399 274.028 102.359L271.334 106.052C271.334 106.052 274.812 99.5264 277.619 101.272C280.425 103.018 277.873 108.602 277.873 108.602C277.873 108.602 279.183 103.766 281.59 103.392C283.998 103.018 286.206 110.604 280.827 130.394C280.827 130.394 286.662 124.609 288.969 123.634C291.277 122.66 291.12 137.794 274.769 153.919C258.418 170.043 246.853 182.473 246.853 182.473L239.919 152.639Z" fill="#F9B384"/>
<path d="M144.496 231.554C145.071 232.442 239.914 152.628 239.914 152.628L259.207 183.457L162.394 297.469L144.496 231.554Z" fill="#3A43AF"/>
<path d="M274.207 102.484C273.077 104.224 272.031 106.046 271.069 107.879C270.108 109.719 269.242 111.608 268.477 113.539C267.692 115.457 267.038 117.426 266.517 119.433L266.125 120.937L265.828 122.464C265.573 123.482 265.517 124.5 265.319 125.543L264.896 125.52C264.903 123.398 265.135 121.283 265.591 119.211C266.051 117.139 266.682 115.108 267.477 113.139C268.278 111.176 269.213 109.27 270.276 107.436C271.327 105.599 272.532 103.854 273.878 102.221L274.207 102.484Z" fill="#E28B6D"/>
<path d="M278.089 108.647C277.774 110.368 277.402 112.075 277.021 113.778C276.639 115.48 276.214 117.175 275.825 118.868L274.532 123.94C274.079 125.624 273.626 127.309 273.12 128.984L272.705 128.895C272.932 127.154 273.265 125.436 273.611 123.721C273.957 122.005 274.374 120.308 274.781 118.611C275.188 116.913 275.641 115.223 276.132 113.546C276.624 111.869 277.11 110.189 277.68 108.533L278.089 108.647Z" fill="#E28B6D"/>
<path d="M283.843 104.166C284.461 110.101 284.191 116.089 283.316 121.98C283.062 123.451 282.807 124.925 282.464 126.378C282.298 127.108 282.115 127.833 281.906 128.551L281.756 129.093L281.687 129.348C281.697 129.305 281.69 129.26 281.667 129.223C281.654 129.202 281.637 129.185 281.617 129.171C281.597 129.157 281.575 129.147 281.551 129.143C281.527 129.138 281.502 129.138 281.479 129.143C281.455 129.148 281.432 129.158 281.413 129.172L281.792 128.836C282.905 127.852 284.028 126.879 285.163 125.917L286.888 124.492C287.194 124.253 287.446 124.047 287.807 123.782C287.996 123.656 288.214 123.579 288.44 123.559C288.666 123.539 288.894 123.576 289.102 123.667C289.311 123.757 289.493 123.899 289.632 124.078C289.772 124.257 289.864 124.469 289.901 124.693L290.01 125.271C290.051 125.655 290.117 126.034 290.122 126.429C290.15 126.812 290.154 127.197 290.135 127.581C290.132 127.965 290.108 128.348 290.061 128.729C289.908 130.242 289.589 131.733 289.11 133.175C288.153 136.028 286.857 138.755 285.25 141.299C283.648 143.817 281.884 146.228 279.967 148.516C279.011 149.659 277.988 150.74 277.003 151.855L273.891 155.049L273.588 154.751L276.565 151.46C277.502 150.318 278.476 149.206 279.382 148.04C281.226 145.743 282.919 143.328 284.448 140.81C285.927 138.265 287.247 135.646 288.128 132.867C288.575 131.491 288.87 130.07 289.008 128.63C289.049 128.274 289.069 127.917 289.069 127.559C289.082 127.203 289.076 126.847 289.051 126.492C289.051 126.136 288.98 125.79 288.942 125.439L288.843 124.93C288.812 124.764 288.804 124.78 288.756 124.718C288.708 124.674 288.646 124.646 288.581 124.641C288.516 124.635 288.45 124.65 288.395 124.685L287.552 125.332L285.838 126.726C284.703 127.671 283.579 128.633 282.466 129.61L282.018 130.012C281.877 130.115 281.708 130.172 281.533 130.175C281.359 130.177 281.187 130.126 281.043 130.027C280.899 129.928 280.79 129.786 280.73 129.622C280.67 129.458 280.662 129.28 280.708 129.111L280.787 128.826L280.937 128.297C281.145 127.592 281.329 126.882 281.499 126.167C281.848 124.739 282.138 123.296 282.402 121.84C282.895 118.932 283.228 116 283.4 113.055C283.608 110.109 283.614 107.153 283.42 104.206L283.843 104.166Z" fill="#E28B6D"/>
<path d="M106.194 300.867C106.194 300.867 73.4264 287.939 60.0424 312.675C43.2157 343.777 68.5002 380.322 68.5002 380.322H112.978L106.194 300.867Z" fill="#AE5140"/>
<path d="M74.1158 311.064C73.2897 311.94 72.5563 312.898 71.9275 313.925C71.2921 314.949 70.7366 316.022 70.266 317.132C69.3057 319.349 68.5684 321.657 68.065 324.021C67.0676 328.762 66.6904 333.612 66.9429 338.45C67.1867 343.295 67.9346 348.101 69.1744 352.791C70.434 357.49 72.101 362.07 74.1565 366.48L73.7773 366.668C73.2226 365.579 72.6349 364.5 72.1387 363.378C71.8842 362.82 71.612 362.271 71.3753 361.706L70.6553 360.011C69.7545 357.72 68.9428 355.404 68.2609 353.043C66.9043 348.304 66.1 343.425 65.864 338.501C65.6503 333.582 66.004 328.614 67.1719 323.814C67.7421 321.409 68.5545 319.068 69.5968 316.826C70.1252 315.706 70.7385 314.628 71.4313 313.602C72.1172 312.566 72.9188 311.613 73.8206 310.759L74.1158 311.064Z" fill="#102048"/>
<path d="M190.724 192.398C201.472 198.956 208.9 195.057 211.08 187.977C213.261 180.897 221.184 154.229 188.022 158.53C188.022 158.53 147.382 142.141 130.186 166.32C115.013 187.649 128.934 202.394 105.759 220.079C89.5939 232.412 71.271 254.079 107.619 291.135L147.043 280.271L190.724 192.398Z" fill="#AE5140"/>
<path d="M178.48 223.324C179.284 227.075 187.981 236.791 191.457 240.438C201.979 251.455 204.299 272.127 174.305 278.444L157.43 239.13L178.48 223.324Z" fill="#6F3428"/>
<path d="M179.976 228.238L176.429 244.571L170.916 269.987L140.155 263.487L147.392 213.643L178.76 227.696L179.976 228.238Z" fill="#F9B384"/>
<path d="M198.905 195.948C198.905 195.948 207.782 205.904 207.47 208.436C207.157 210.968 198.905 215.511 198.905 215.511V195.948Z" fill="#E28B6D"/>
<path d="M179.977 228.246L176.43 244.576C166.967 239.542 160.066 227.083 160.066 227.083L178.763 227.701L179.977 228.246Z" fill="#E28B6D"/>
<path d="M200.984 218.603C199.737 228.065 196.589 235.336 189.862 235.987C171.264 237.789 144.496 216.954 144.496 216.954L145.939 178.795L166.165 166.325L198.89 172.392C199.281 176.701 201.289 189.876 201.615 203.127C201.755 208.466 201.612 213.816 200.984 218.603Z" fill="#F9B384"/>
<path d="M204.045 178.795L200.009 181.905C178.969 165.485 183.33 189.138 181.376 196.714C179.422 204.29 169.453 202.292 161.672 197.396L160.285 208.001L136.901 208.739L135.545 179.101L158.863 160.869L202.027 169.29L204.045 178.795Z" fill="#AE5140"/>
<path d="M173.837 288.845C185.323 282.681 182.066 266.597 177.595 261.105C173.124 255.613 154.127 246.365 151.822 229.04C150.55 219.399 160.285 208.019 160.285 208.019L140.517 197.411L120.265 229.243L135.547 283.941L173.837 288.845Z" fill="#AE5140"/>
<path d="M188.147 377.123L91.7415 377.189C87.5304 315.449 102.917 283.88 116.219 268.371C120.34 263.58 125.581 259.884 131.477 257.612C137.372 255.34 143.739 254.562 150.008 255.349C161.109 256.715 170.743 261.991 180.508 284.977L134.873 306.204L164.168 357.794C167.111 362.982 171.37 367.302 176.516 370.318L188.147 377.123Z" fill="#3A43AF"/>
<path d="M134.873 306.204C134.873 306.204 149.216 363.63 154.534 371.185C160.069 379.054 171.951 377.077 192.661 377.123L166.498 318.824L134.873 306.204Z" fill="#1F3C88"/>
<path d="M251.909 361.512L247.767 376.782L192.661 377.123H188.147L176.516 370.318C171.37 367.302 167.111 362.982 164.168 357.794L134.873 306.204L180.508 284.977C185.414 296.49 190.34 312.462 195.493 334.602C195.837 336.077 196.521 337.451 197.489 338.616C198.457 339.78 199.683 340.703 201.07 341.311L251.909 361.512Z" fill="#3A43AF"/>
<path d="M166.498 201.593C164.842 192.398 153.934 191.181 152.035 197.393C150.137 203.606 150.6 214.279 164.297 213.645L166.498 201.593Z" fill="#F9B384"/>
<path d="M162.122 202.315L160.414 200.366C159.903 199.77 159.308 199.251 158.649 198.824C158.025 198.475 157.529 198.376 156.956 198.684C156.384 198.992 155.806 199.618 155.224 200.269L154.656 199.984C154.911 199.091 155.295 198.17 156.183 197.48C156.66 197.113 157.246 196.917 157.847 196.923C158.421 196.95 158.979 197.125 159.465 197.432C160.293 197.965 160.989 198.678 161.501 199.519C162.005 200.29 162.397 201.129 162.666 202.01L162.122 202.315Z" fill="#E28B6D"/>
<path opacity="0.2" d="M200.503 221.629C200.035 221.725 191.29 219.213 191.29 210.976C191.29 206.581 195.137 202.832 199.531 202.832C200.24 202.828 200.945 202.927 201.625 203.125C201.755 208.466 201.643 216.465 200.503 221.629Z" fill="#EE6F57"/>
<path d="M359.421 377.711H244.739L266.403 284.386H381.088L359.421 377.711Z" fill="#1F3C88"/>
<path opacity="0.6" d="M359.424 377.713L381.088 284.386C348.307 360.255 299.598 368.663 244.739 377.713" fill="#102048"/>
<path d="M319.258 333.711C321.004 329.547 319.579 324.979 316.075 323.51C312.571 322.04 308.314 324.224 306.568 328.389C304.822 332.554 306.247 337.121 309.752 338.591C313.256 340.06 317.512 337.876 319.258 333.711Z" fill="white"/>
<path d="M501.569 308.69L501.223 318.175L499.661 360.675V360.729C499.534 363.908 498.708 367.02 497.242 369.843C495.775 372.666 493.703 375.131 491.175 377.062H443.39L343.585 377.398C341.804 377.398 339.984 373.252 342.62 371.201C348.447 366.643 357.572 361.63 363.92 357.57C367.42 355.323 371.597 354.374 375.724 354.891C382.594 355.769 392.5 359.253 404.825 355.618C406.957 354.987 409.129 354.501 411.327 354.163L451.494 347.989L467.303 345.558L467.748 318.773L467.89 310.668C469.397 310.266 470.941 309.908 472.524 309.594C480.819 307.952 490.297 307.443 501.569 308.69Z" fill="#F9B384"/>
<path opacity="0.6" d="M501.569 308.69L501.223 318.175C495.386 316.124 472.837 309.711 467.89 310.678C469.396 310.276 470.941 309.918 472.524 309.604C480.819 307.952 490.297 307.443 501.569 308.69Z" fill="#E28B6D"/>
<path opacity="0.3" d="M499.66 360.685V360.738C499.534 363.918 498.708 367.03 497.241 369.853C495.774 372.676 493.703 375.141 491.175 377.072H476.656C479.195 363.105 489.775 358.764 499.66 360.685Z" fill="#EE6F57"/>
<path d="M461.226 346.182C462.928 345.453 464.72 344.956 466.554 344.703C468.399 344.435 470.27 344.409 472.122 344.627C473.973 344.82 475.793 345.247 477.536 345.899C479.288 346.527 480.933 347.42 482.414 348.546L482.063 349.075C480.455 348.343 478.792 347.735 477.091 347.258C475.404 346.774 473.68 346.434 471.936 346.24C470.196 346.027 468.441 345.975 466.692 346.088C464.921 346.201 463.16 346.435 461.422 346.79L461.226 346.182Z" fill="#E28B6D"/>
<path d="M580.087 377.166H0.928711V390.003H580.087V377.166Z" fill="#D3DFFF"/>
<path d="M0.928711 377.186H580.084" stroke="#102048" stroke-width="6" stroke-miterlimit="10"/>
<path d="M87.5992 150.941C85.8631 141.622 81.1728 133.109 74.2226 126.663C67.2724 120.217 58.4318 116.181 49.0095 115.152C39.5872 114.123 30.0839 116.156 21.9066 120.949C13.7293 125.743 7.31253 133.042 3.60622 141.767C-0.100086 150.493 -0.898939 160.179 1.32793 169.394C3.55479 178.609 8.68901 186.861 15.9705 192.93C23.2521 198.999 32.2939 202.561 41.7574 203.09C51.221 203.619 60.6034 201.086 68.5155 195.866L83.7825 202.526L76.4289 189.156C81.1564 184.108 84.6307 178.019 86.5712 171.381C88.5116 164.742 88.8637 157.741 87.5992 150.941Z" fill="url(#paint0_linear_472_664)"/>
<path d="M27.6459 174.408V160.968L26.8622 161.358C26.0574 161.757 25.1705 161.964 24.2719 161.961C23.3874 161.959 22.5146 161.758 21.7185 161.373C20.9224 160.987 20.2235 160.427 19.6739 159.734C19.1243 159.041 18.7381 158.233 18.5441 157.369C18.3501 156.506 18.3532 155.611 18.5534 154.749C18.7535 153.887 19.1454 153.082 19.6999 152.392C20.2544 151.703 20.9573 151.148 21.7561 150.768C22.5549 150.388 23.4291 150.193 24.3136 150.198C25.1981 150.203 26.0701 150.408 26.8647 150.796L27.6459 151.175V137.751H39.2818C39.0981 138.379 39.0055 139.031 39.007 139.685C39.0419 141.51 39.7914 143.249 41.0943 144.528C42.3973 145.806 44.1498 146.522 45.9751 146.522C47.8004 146.522 49.5529 145.806 50.8559 144.528C52.1588 143.249 52.9083 141.51 52.9432 139.685C52.9446 139.031 52.8521 138.379 52.6684 137.751H64.3043V149.496C63.5681 149.239 62.7937 149.11 62.0143 149.114C61.0009 149.113 59.9996 149.334 59.0802 149.76C58.1608 150.186 57.3454 150.807 56.691 151.581C56.0367 152.355 55.559 153.263 55.2914 154.24C55.0238 155.218 54.9727 156.242 55.1417 157.241C55.3107 158.24 55.6957 159.191 56.2699 160.026C56.844 160.861 57.5934 161.561 58.4659 162.076C59.3383 162.592 60.3127 162.911 61.3211 163.011C62.3295 163.111 63.3476 162.99 64.3043 162.655V174.408H27.6459Z" fill="white"/>
<path d="M63.7621 138.293V148.773C62.6574 148.506 61.5066 148.493 60.3964 148.736C59.2862 148.978 58.2454 149.47 57.3525 150.173C56.4596 150.876 55.7378 151.772 55.2415 152.795C54.7452 153.817 54.4874 154.939 54.4874 156.076C54.4874 157.212 54.7452 158.334 55.2415 159.356C55.7378 160.379 56.4596 161.275 57.3525 161.978C58.2454 162.682 59.2862 163.173 60.3964 163.415C61.5066 163.658 62.6574 163.645 63.7621 163.378V173.866H28.1876V160.095L26.6202 160.859C25.8903 161.22 25.0862 161.407 24.2716 161.403C23.4636 161.409 22.6647 161.232 21.9351 160.885C21.2055 160.537 20.5642 160.029 20.0594 159.398C19.5546 158.767 19.1995 158.029 19.0208 157.241C18.8421 156.453 18.8444 155.634 19.0277 154.847C19.2109 154.06 19.5703 153.325 20.0787 152.697C20.5872 152.068 21.2314 151.564 21.963 151.221C22.6946 150.877 23.4945 150.705 24.3025 150.715C25.1105 150.726 25.9056 150.92 26.6278 151.282L28.1876 152.046V138.303H38.5869C38.5001 138.762 38.4566 139.228 38.4572 139.695C38.5287 141.638 39.3509 143.478 40.7507 144.828C42.1506 146.177 44.0191 146.931 45.9634 146.931C47.9076 146.931 49.7762 146.177 51.176 144.828C52.5759 143.478 53.3981 141.638 53.4696 139.695C53.4702 139.228 53.4267 138.762 53.3398 138.303H63.7468L63.7621 138.293ZM64.8333 137.216H51.8819C52.2172 138 52.3903 138.843 52.3908 139.695C52.3573 141.378 51.6655 142.98 50.4641 144.158C49.2626 145.336 47.6472 145.996 45.9647 145.996C44.2822 145.996 42.6667 145.336 41.4653 144.158C40.2638 142.98 39.572 141.378 39.5386 139.695C39.539 138.843 39.7121 138 40.0475 137.216H27.1037V150.318C26.2354 149.892 25.2823 149.667 24.3153 149.661C23.3482 149.655 22.3923 149.867 21.5187 150.282C20.6452 150.697 19.8765 151.304 19.27 152.057C18.6636 152.811 18.235 153.691 18.0162 154.633C17.7974 155.575 17.7941 156.555 18.0065 157.498C18.2189 158.442 18.6415 159.325 19.2428 160.083C19.8441 160.84 20.6087 161.452 21.4794 161.873C22.3501 162.294 23.3046 162.513 24.2716 162.513C25.254 162.516 26.2235 162.29 27.1037 161.854V174.963H64.8486V161.836C63.9693 162.276 62.9996 162.504 62.0165 162.503C60.3133 162.503 58.6797 161.826 57.4753 160.621C56.2709 159.417 55.5943 157.783 55.5943 156.079C55.5943 154.376 56.2709 152.742 57.4753 151.537C58.6797 150.333 60.3133 149.656 62.0165 149.656C62.999 149.652 63.9687 149.878 64.8486 150.315V137.206L64.8333 137.216Z" fill="#8CBFBE"/>
<path d="M507.75 151.473C508.328 142.008 511.938 132.981 518.046 125.728C524.153 118.476 532.434 113.383 541.661 111.203C550.888 109.024 560.571 109.874 569.278 113.629C577.984 117.383 585.25 123.841 590.001 132.047C594.751 140.254 596.733 149.772 595.654 159.193C594.574 168.613 590.49 177.436 584.006 184.355C577.523 191.273 568.984 195.92 559.654 197.606C550.324 199.293 540.7 197.93 532.205 193.719L517.859 202.206L523.518 188.031C518.207 183.601 514.013 177.984 511.274 171.633C508.535 165.283 507.328 158.377 507.75 151.473Z" fill="url(#paint1_linear_472_664)"/>
<path d="M559.352 172.766C558.787 171.586 557.901 170.59 556.794 169.892C555.688 169.195 554.407 168.825 553.099 168.825C551.791 168.825 550.509 169.195 549.403 169.892C548.296 170.59 547.41 171.586 546.846 172.766H534.734V159.334L533.998 159.703C533.19 160.107 532.299 160.317 531.395 160.314C530.609 160.33 529.827 160.19 529.095 159.9C528.364 159.61 527.697 159.177 527.135 158.626C526.573 158.076 526.126 157.418 525.821 156.693C525.516 155.967 525.359 155.188 525.359 154.401C525.359 153.614 525.516 152.835 525.821 152.109C526.126 151.384 526.573 150.726 527.135 150.176C527.697 149.625 528.364 149.192 529.095 148.902C529.827 148.612 530.609 148.472 531.395 148.488C532.299 148.486 533.19 148.695 533.998 149.099L534.734 149.468V136.038H547.751L547.515 135.361C547.202 134.47 547.108 133.516 547.239 132.58C547.371 131.644 547.724 130.754 548.271 129.983C548.817 129.212 549.54 128.583 550.38 128.15C551.219 127.716 552.15 127.489 553.095 127.489C554.04 127.489 554.971 127.716 555.81 128.15C556.649 128.583 557.372 129.212 557.919 129.983C558.465 130.754 558.819 131.644 558.951 132.58C559.082 133.516 558.988 134.47 558.675 135.361L558.438 136.041H571.456V172.766H559.352Z" fill="white"/>
<path d="M553.082 127.996C553.945 127.997 554.796 128.204 555.563 128.6C556.33 128.997 556.991 129.571 557.491 130.276C557.991 130.98 558.314 131.794 558.435 132.649C558.556 133.504 558.471 134.375 558.186 135.191L557.71 136.547H570.942V172.257H559.659C559.025 171.067 558.078 170.071 556.922 169.377C555.765 168.683 554.441 168.316 553.092 168.316C551.743 168.316 550.419 168.683 549.263 169.377C548.106 170.071 547.16 171.067 546.525 172.257H535.237V158.515L533.764 159.25C533.027 159.619 532.214 159.81 531.39 159.808C530.671 159.823 529.955 159.695 529.286 159.43C528.617 159.166 528.007 158.77 527.493 158.267C526.979 157.764 526.57 157.163 526.291 156.499C526.012 155.836 525.868 155.123 525.868 154.403C525.868 153.684 526.012 152.971 526.291 152.308C526.57 151.644 526.979 151.043 527.493 150.54C528.007 150.037 528.617 149.641 529.286 149.377C529.955 149.112 530.671 148.984 531.39 148.999C532.214 148.994 533.027 149.182 533.764 149.549L535.237 150.285V136.542H548.469L547.993 135.186C547.709 134.372 547.623 133.501 547.743 132.647C547.863 131.793 548.186 130.981 548.684 130.277C549.182 129.573 549.841 128.998 550.606 128.601C551.371 128.203 552.22 127.994 553.082 127.991V127.996ZM553.082 126.973C552.056 126.974 551.045 127.22 550.134 127.692C549.223 128.164 548.438 128.847 547.845 129.684C547.252 130.521 546.868 131.488 546.725 132.504C546.582 133.52 546.684 134.556 547.023 135.524H534.215V148.63C533.335 148.194 532.367 147.969 531.385 147.974C530.531 147.957 529.682 148.11 528.888 148.425C528.095 148.74 527.371 149.211 526.761 149.809C526.152 150.407 525.667 151.121 525.336 151.908C525.005 152.696 524.835 153.542 524.835 154.396C524.835 155.25 525.005 156.096 525.336 156.883C525.667 157.671 526.152 158.385 526.761 158.983C527.371 159.581 528.095 160.051 528.888 160.366C529.682 160.681 530.531 160.835 531.385 160.818C532.367 160.82 533.336 160.593 534.215 160.154V173.275H547.166C547.655 172.107 548.477 171.11 549.531 170.408C550.585 169.707 551.822 169.333 553.088 169.333C554.354 169.333 555.592 169.707 556.645 170.408C557.699 171.11 558.522 172.107 559.011 173.275H571.954V135.529H559.145C559.485 134.56 559.587 133.524 559.444 132.508C559.301 131.491 558.916 130.524 558.323 129.687C557.729 128.849 556.943 128.167 556.031 127.695C555.12 127.224 554.108 126.978 553.082 126.978V126.973Z" fill="#708CD5"/>
<path opacity="0.2" d="M300.219 49.72C300.219 60.8591 292.603 71.4027 282.499 74.5456H268.833C258.314 71.6648 250.579 61.1569 250.579 49.72C250.645 43.1797 253.289 36.9298 257.936 32.3284C262.584 27.7269 268.859 25.1458 275.399 25.1458C281.938 25.1458 288.214 27.7269 292.861 32.3284C297.509 36.9298 300.153 43.1797 300.219 49.72Z" fill="#FBC343"/>
<path d="M275.397 0V18.5346" stroke="#FBC343" stroke-width="4" stroke-miterlimit="10"/>
<path d="M258.014 23.7999L241.77 11.6709" stroke="#FBC343" stroke-width="4" stroke-miterlimit="10"/>
<path d="M292.784 23.7999L309.028 11.6709" stroke="#FBC343" stroke-width="4" stroke-miterlimit="10"/>
<path d="M266.555 20.3669L263.166 11.6709" stroke="#FBC343" stroke-width="4" stroke-miterlimit="10"/>
<path d="M284.242 20.3669L287.628 11.6709" stroke="#FBC343" stroke-width="4" stroke-miterlimit="10"/>
<path d="M291.27 52.8679C291.27 44.457 283.73 37.6875 274.601 38.1074C266.507 38.4764 259.881 44.6936 259.542 52.2368C259.459 54.2505 259.807 56.2589 260.562 58.1273C261.318 59.9958 262.464 61.6811 263.924 63.0704C266.977 66.0302 268.832 69.8654 268.832 73.9627V74.5505H282.499V73.3315C282.499 69.4175 284.237 65.7401 287.079 62.8618C288.4 61.5531 289.45 59.9968 290.169 58.282C290.888 56.5672 291.262 54.7274 291.27 52.8679Z" fill="#FBC343"/>
<path d="M268.566 79.5107H282.232V79.8492C282.232 81.6621 281.512 83.4008 280.23 84.6827C278.949 85.9647 277.21 86.6848 275.397 86.6848C273.585 86.6848 271.847 85.9647 270.565 84.6827C269.283 83.4008 268.563 81.6621 268.563 79.8492V79.5107H268.566Z" fill="#FBC343"/>
<path opacity="0.8" d="M270.308 54.4433C272.381 54.4433 274.061 52.7627 274.061 50.6895C274.061 48.6164 272.381 46.9358 270.308 46.9358C268.236 46.9358 266.555 48.6164 266.555 50.6895C266.555 52.7627 268.236 54.4433 270.308 54.4433Z" fill="white"/>
<path d="M412.461 90.5658V82.1676H408.451C407.94 79.8408 407.005 77.628 405.693 75.6399L408.568 72.7642L402.627 66.8218L399.68 69.7663C397.7 68.5278 395.513 67.6555 393.225 67.1908V62.9128H384.828V67.3232C382.62 67.849 380.522 68.7568 378.627 70.0055L375.426 66.8066L369.477 72.7515L372.747 76.0217C371.568 77.908 370.722 79.9825 370.245 82.1549H365.584V90.5531H370.245C370.722 92.7255 371.568 94.8 372.747 96.6863L369.477 99.9566L375.418 105.899L378.619 102.7C380.514 103.949 382.613 104.856 384.82 105.382V109.793H393.217V105.535C395.506 105.07 397.692 104.198 399.672 102.96L402.619 105.904L408.56 99.9616L405.685 97.0859C406.999 95.1007 407.937 92.8905 408.451 90.5658H412.461Z" fill="#F0F0F0"/>
<path d="M398.298 95.6315C403.42 90.5082 403.42 82.2017 398.298 77.0784C393.175 71.9551 384.87 71.9551 379.748 77.0784C374.625 82.2017 374.625 90.5082 379.748 95.6315C384.87 100.755 393.175 100.755 398.298 95.6315Z" fill="white"/>
<path d="M455.16 77.2941L457.048 71.507L454.287 70.6061C454.457 68.8889 454.31 67.1551 453.855 65.4908L456.478 64.1598L453.722 58.7315L451.048 60.0981C449.963 58.7999 448.653 57.7077 447.181 56.8737L448.14 53.9369L442.354 52.0486L441.361 55.0847C439.723 54.9499 438.074 55.1033 436.489 55.5377L435.005 52.6161L429.578 55.3722L431.105 58.3574C429.87 59.3921 428.821 60.6297 428.003 62.017L424.794 60.971L422.906 66.7582L426.115 67.8041C425.955 69.407 426.072 71.0254 426.461 72.5886L423.474 74.1155L426.229 79.5438L429.15 78.0601C430.176 79.3458 431.418 80.443 432.82 81.3023L431.827 84.3384L437.613 86.2268L438.573 83.2925C440.253 83.4876 441.954 83.3782 443.595 82.9693L444.962 85.6592L450.387 82.9031L449.056 80.2793C450.405 79.204 451.545 77.8902 452.42 76.4034L455.16 77.2941Z" fill="#F0F0F0"/>
<path d="M448.703 72.9112C450.782 68.0941 448.563 62.5033 443.747 60.4237C438.931 58.3442 433.341 60.5634 431.262 65.3805C429.183 70.1976 431.401 75.7883 436.218 77.8679C441.034 79.9474 446.624 77.7283 448.703 72.9112Z" fill="white"/>
<path d="M187.103 94.2278L191.34 88.4407L188.579 86.4175C189.4 84.5573 189.872 82.562 189.971 80.5311L193.399 80.0018L192.304 72.9117L188.793 73.4563C188.058 71.6049 186.996 69.9007 185.658 68.425L187.808 65.4907L182.022 61.2509L179.798 64.2895C178.012 63.5413 176.109 63.1107 174.175 63.0171L173.585 59.1997L166.496 60.294L167.099 64.1954C165.332 64.8967 163.699 65.897 162.272 67.1525L159.061 64.8011L154.824 70.5882L158.033 72.9397C157.267 74.6761 156.805 76.5311 156.666 78.4239L152.766 79.0271L153.852 86.1121L157.669 85.5217C158.344 87.3373 159.331 89.0211 160.585 90.497L158.361 93.5356L164.147 97.7729L166.297 94.8361C168.107 95.6724 170.054 96.175 172.043 96.3198L172.585 99.8343L179.674 98.7374L179.144 95.3094C181.049 94.6005 182.807 93.5482 184.333 92.2046L187.103 94.2278Z" fill="#F0F0F0"/>
<path d="M184.285 80.0357C184.568 73.8593 179.791 68.6232 173.615 68.3406C167.44 68.058 162.205 72.8358 161.922 79.0122C161.64 85.1886 166.417 90.4247 172.592 90.7073C178.767 90.9899 184.003 86.2121 184.285 80.0357Z" fill="white"/>
<path d="M135.278 81.5974L139.494 78.5664L138.049 76.5534C139.035 75.4574 139.811 74.1893 140.339 72.8124L142.82 73.2196L143.657 68.0916L141.112 67.6768C141.02 66.2355 140.669 64.8226 140.077 63.5057L142.217 61.9787L139.183 57.7592L136.97 59.3498C135.91 58.4314 134.697 57.7053 133.387 57.2045L133.832 54.428L128.708 53.5881L128.245 56.4079C126.873 56.4978 125.527 56.8214 124.265 57.3648L122.583 55.0235L118.365 58.057L120.046 60.3958C119.13 61.4199 118.395 62.593 117.873 63.8645L115.052 63.4039L114.212 68.5293L116.973 68.9823C117.03 70.3811 117.331 71.7592 117.863 73.0542L115.65 74.6447L118.68 78.8642L120.82 77.3245C121.879 78.3072 123.106 79.0909 124.443 79.6378L124.026 82.1828L129.153 83.0226L129.558 80.5438C131.029 80.4837 132.477 80.1542 133.83 79.5717L135.278 81.5974Z" fill="#F0F0F0"/>
<path d="M130.83 76.2159C135.181 75.1614 137.854 70.7785 136.799 66.4265C135.745 62.0744 131.363 59.4012 127.012 60.4557C122.66 61.5102 119.987 65.893 121.042 70.2451C122.096 74.5971 126.478 77.2703 130.83 76.2159Z" fill="white"/>
</g>
<defs>
<linearGradient id="paint0_linear_472_664" x1="5.03826" y1="216.065" x2="84.0701" y2="123.001" gradientUnits="userSpaceOnUse">
<stop stop-color="#95239C"/>
<stop offset="1" stop-color="#3A43AF"/>
</linearGradient>
<linearGradient id="paint1_linear_472_664" x1="208084" y1="79430" x2="238729" y2="79430" gradientUnits="userSpaceOnUse">
<stop stop-color="#95239C"/>
<stop offset="1" stop-color="#3A43AF"/>
</linearGradient>
<clipPath id="clip0_472_664">
<rect width="596" height="390" fill="white"/>
</clipPath>
</defs>
</svg>
