<svg width="68" height="76" viewBox="0 0 68 76" fill="none" xmlns="http://www.w3.org/2000/svg">
<path d="M53.2791 4.59717C53.5033 4.67131 53.7648 4.74546 53.989 4.85668C55.4461 5.44985 56.3055 7.044 56.0439 8.52692C55.745 10.1211 54.4747 11.2333 52.9055 11.3074C52.5692 11.3074 52.233 11.3074 51.822 11.3074C51.822 11.8264 51.822 12.3084 51.822 12.7903C51.8593 15.6079 51.7846 18.4255 51.0374 21.2059C49.5429 26.804 46.5165 31.4011 41.9582 35.0342C41.7714 35.1825 41.5846 35.3308 41.3978 35.4791C39.3802 37.0362 39.4176 39.5201 41.4352 41.1142C42.4813 41.9298 43.4901 42.7825 44.4242 43.7094C49.2813 48.6401 51.7846 54.5718 51.8593 61.5045C51.8593 62.7279 51.8593 63.9513 51.8593 65.2118C52.2703 65.2118 52.5692 65.2118 52.9055 65.2118C54.7363 65.2859 56.1187 66.7689 56.1187 68.5855C56.1187 70.365 54.6989 71.8479 52.9055 71.9591C52.756 71.9591 52.6439 71.9591 52.4945 71.9591C40.2395 71.9591 27.9846 71.9591 15.7297 71.9591C13.6747 71.9591 12.1428 70.5503 12.1055 68.6596C12.0681 66.7689 13.4879 65.323 15.3934 65.2489C15.6923 65.2489 15.9912 65.2489 16.3648 65.2489C16.3648 64.285 16.3648 63.3581 16.3648 62.4313C16.2901 53.5708 19.8022 46.4898 26.8264 41.0772C28.8439 39.5201 28.7692 36.9991 26.6769 35.405C21.9319 31.8089 18.756 27.1747 17.1494 21.5025C16.3648 18.722 16.2527 15.9045 16.2901 13.0499C16.2901 12.4938 16.2901 11.9747 16.2901 11.3445C15.9538 11.3445 15.6549 11.3445 15.356 11.3445C13.6747 11.2703 12.367 10.1581 12.0681 8.52692C11.8066 7.00692 12.6659 5.48692 14.1231 4.85668C14.2725 4.78253 14.422 4.67131 14.5341 4.59717C27.4989 4.59717 40.389 4.59717 53.2791 4.59717ZM18.4945 65.1377C28.9187 65.1377 39.3055 65.1377 49.7297 65.1377C49.7297 63.8401 49.7297 62.6167 49.7297 61.3562C49.7297 57.3523 48.6835 53.6079 46.7407 50.123C45.0967 47.1942 42.8923 44.7474 40.1648 42.7455C38.5209 41.5591 37.7363 39.9279 37.811 37.9259C37.9231 36.0723 38.8571 34.7377 40.3143 33.5884C47.6374 27.9162 50.3648 20.3533 49.6176 11.3445C39.2308 11.3445 28.8439 11.3445 18.4198 11.3445C18.4198 12.5308 18.4198 13.6801 18.4198 14.8294C18.4945 22.3552 21.5209 28.4352 27.3494 33.2177C27.9099 33.6625 28.5077 34.1074 28.9934 34.6264C31.1604 37.0733 30.7121 40.6694 27.9846 42.7084C25.145 44.8216 22.9033 47.4167 21.1846 50.4937C18.6813 55.0908 18.1209 60.0216 18.4945 65.1377Z" fill="#3A43AF"/>
<path d="M21.2217 62.2829C21.1096 59.6136 21.9689 57.3151 23.6129 55.2761C24.659 53.9414 25.9293 52.9034 27.3491 51.9765C31.1227 49.4926 33.0656 46.0078 33.0282 41.4848C32.9909 39.2604 33.0282 37.0731 33.0282 34.8487C33.0282 33.1063 32.3931 32.1795 30.7491 31.5863C28.8063 30.919 27.3118 29.6585 26.0414 28.1014C26.0041 28.0643 26.0414 28.0273 26.0414 27.9531C31.3843 27.9531 36.7645 27.9531 42.1821 27.9531C42.1074 28.1014 42.0326 28.2126 41.9579 28.3239C40.6502 29.918 39.081 31.0673 37.1381 31.7346C35.9425 32.1424 35.1953 33.1804 35.1579 34.4409C35.1206 37.1843 35.0458 39.9648 35.1953 42.7082C35.3821 46.6009 37.2876 49.6039 40.5008 51.7912C42.4063 53.0887 44.1249 54.4975 45.3579 56.4624C46.4788 58.2419 47.0392 60.2068 46.9271 62.32C38.3337 62.2829 29.8151 62.2829 21.2217 62.2829Z" fill="#3A43AF"/>
</svg>
