<svg width="284" height="273" viewBox="0 0 284 273" fill="none" xmlns="http://www.w3.org/2000/svg">
<path d="M181.334 56.8969C179.664 56.754 177.708 55.5627 177.851 53.8472C177.947 52.8941 178.758 52.1317 179.712 51.8458C180.618 51.5599 181.62 51.6552 182.574 51.7028C187.011 52.084 191.448 52.4653 195.884 52.8465C196.791 52.9418 197.793 52.9894 198.508 52.4176C199.749 51.4646 199.176 49.3679 197.984 48.3672C196.791 47.3665 195.169 47.0329 193.833 46.2705C190.875 44.6503 189.253 41.0287 189.826 37.7407C190.398 34.4527 193.022 31.6412 196.266 30.6882C200.703 29.4015 205.951 31.8795 207.763 36.1682C208.67 38.3602 208.718 40.7904 209.386 43.0301C210.053 45.2698 211.628 47.6047 213.965 47.8906C215.731 48.1289 217.4 47.1282 218.784 45.9845C220.167 44.8409 221.36 43.5066 222.982 42.7442C224.556 41.9818 226.703 41.9341 227.896 43.2684C228.993 44.4597 228.898 46.3658 229.852 47.6524C230.806 48.8913 232.571 49.2249 234.098 48.9866C235.624 48.7484 237.056 47.9859 238.439 47.3188C240.3 46.4611 242.303 45.7939 244.307 46.1275C246.311 46.4611 248.219 48.0812 248.267 50.0826C248.314 51.7505 247.074 53.2277 245.595 53.9901C244.116 54.7526 242.447 54.9432 240.777 55.0861C230.711 56.0392 222.553 54.5143 210.53 55.0385C206.952 55.1814 213.059 56.1345 213.393 57.5641C214.442 61.6622 198.89 61.3286 199.844 58.6124C201.514 55.9915 193.547 58.0882 181.334 56.8969Z" fill="url(#paint0_linear_1330_3761)"/>
<path opacity="0.45" d="M221.503 198.043C221.169 192.229 226.655 187.941 231.712 185.034C236.769 182.127 242.542 178.648 243.353 172.93C244.212 167.021 239.25 161.208 240.634 155.394C241.588 151.391 245.214 148.77 248.124 145.864C255.614 138.382 259.239 127.232 257.522 116.748C255.804 106.312 248.792 96.8771 239.298 92.2072C234.479 89.8246 228.898 88.6333 223.602 89.7769C218.354 90.9206 213.488 94.6375 211.819 99.7363C210.292 104.359 211.437 109.362 211.628 114.223C211.819 119.083 210.53 124.706 206.141 126.85C200.178 129.805 193.547 124.325 189.73 118.892C180.523 105.788 175.275 89.9199 174.846 73.9087C174.655 67.3804 175.275 60.8043 174.035 54.4189C172.794 48.0335 169.407 41.5528 163.491 38.8366C155.763 35.2627 146.842 38.9796 139.161 42.6012C131.003 46.461 122.082 51.2262 119.315 59.8036C116.214 69.4294 122.463 79.627 130.144 86.203C137.825 92.779 147.176 97.3536 153.902 104.883C160.629 112.412 163.825 124.754 157.194 132.378C151.183 139.335 140.497 138.954 131.337 138.573C122.129 138.144 111.109 139.24 106.72 147.293C102.474 155.061 107.006 164.686 112.54 171.596C121.652 182.985 133.674 192.039 147.128 197.662L221.503 198.043Z" fill="#26572A"/>
<path d="M205.475 232.877C263.057 245.219 268.686 181.841 241.732 159.921C237.486 156.443 231.427 155.442 226.275 156.919C221.123 158.396 216.733 163.59 217.115 169.309C217.688 177.028 226.513 181.651 233.526 179.84C240.539 178.029 245.787 171.93 249.938 165.639C272.217 132.045 275.318 84.9641 257.714 47.9383C251.083 33.9285 238.774 20.014 224.271 22.1584C209.673 24.3504 201.849 41.4099 198.366 56.6586C194.884 71.9074 192.307 89.1575 180.619 98.6403C176.421 102.024 170.601 104.025 165.878 101.404C160.439 98.402 159.056 90.9683 157.434 84.6782C154.714 74.147 149.467 64.0924 141.452 57.3258C133.389 50.5591 122.321 47.4141 112.637 50.7021C97.0842 55.9438 89.4511 75.8625 91.6933 93.1603C93.9356 110.458 103.62 125.612 113.352 139.717" stroke="#0E232B" stroke-width="0.4838" stroke-miterlimit="10" stroke-dasharray="1.94 1.94"/>
<path d="M104.19 148.866C92.2158 164.639 70.5568 170.643 55.0521 171.262C25.0443 172.454 10.3983 198.805 23.6131 218.629C34.1087 234.354 56.8172 227.635 54.3842 218.629C52.0465 209.908 30.96 213.721 34.2518 230.971C37.4482 247.792 63.7824 257.894 95.3168 243.456" stroke="#0E232B" stroke-width="0.4849" stroke-miterlimit="10" stroke-dasharray="1.94 1.94"/>
<path d="M83.629 14.8199L15.074 133.474C13.1657 136.762 15.551 140.86 19.3676 140.86H156.478C160.294 140.86 162.68 136.762 160.771 133.474L92.2163 14.8199C90.2603 11.5319 85.4896 11.5319 83.629 14.8199Z" fill="url(#paint1_linear_1330_3761)" stroke="url(#paint2_linear_1330_3761)" stroke-miterlimit="10"/>
<path d="M32.438 131.663C30.7682 131.663 29.9572 130.615 29.5755 130.043C29.2416 129.424 28.7645 128.185 29.5755 126.755L85.0588 30.8311C85.8698 29.4015 87.2056 29.2109 87.9212 29.2109C88.6369 29.2109 89.9249 29.4015 90.7837 30.8311L146.219 126.755C147.03 128.185 146.553 129.424 146.219 130.043C145.885 130.663 145.027 131.663 143.357 131.663H32.438Z" fill="url(#paint3_linear_1330_3761)"/>
<path d="M88.018 100.594C83.4859 100.594 79.717 97.0201 79.5262 92.4931L78.3335 65.1883C78.095 59.7083 82.484 55.0861 88.018 55.0861C93.552 55.0861 97.9411 59.6607 97.7025 65.1883L96.5099 92.4931C96.319 97.0201 92.5979 100.594 88.018 100.594ZM88.018 104.454C82.6748 104.454 78.3335 108.79 78.3335 114.127C78.3335 119.464 82.6748 123.801 88.018 123.801C93.3612 123.801 97.7025 119.464 97.7025 114.127C97.7503 108.79 93.4089 104.454 88.018 104.454Z" fill="url(#paint4_linear_1330_3761)"/>
<path d="M134.77 159.969H57.4844L65.8331 197.614H143.119L134.77 159.969Z" fill="url(#paint5_linear_1330_3761)"/>
<path d="M159.244 128.709C129.57 108.933 93.5987 116.796 79.4297 124.468C79.4297 124.468 84.3912 125.993 86.2041 136.19C88.017 146.388 88.2555 156.585 82.5784 165.544C82.5784 165.544 83.2462 179.697 90.4977 197.614H139.731C139.731 197.614 142.021 183.795 150.656 173.121C159.291 162.494 164.491 143.433 159.244 128.709Z" fill="url(#paint6_linear_1330_3761)" stroke="url(#paint7_linear_1330_3761)" stroke-miterlimit="10"/>
<path d="M153.661 106.026C155.951 105.455 154.901 102.452 153.661 99.2598C152.421 96.0671 148.079 90.2058 140.112 91.1112C132.145 92.0166 126.373 100.165 127.47 104.406C128.519 108.647 129.903 110.506 134.96 111.363C140.017 112.221 153.661 106.026 153.661 106.026Z" fill="url(#paint8_linear_1330_3761)"/>
<path d="M125.944 109.076C125.944 109.076 118.931 115.176 116.212 123.086C113.636 130.663 123.225 139.907 126.278 139.86C128.997 139.86 132.337 137.953 134.15 133.188C135.963 128.375 129.188 109.553 129.188 109.553L125.944 109.076Z" fill="url(#paint9_linear_1330_3761)"/>
<path d="M130.525 106.694C130.239 103.12 128.712 102.262 127.329 103.263C125.945 104.263 125.468 107.218 125.945 109.076C126.422 110.935 127.329 111.602 128.521 110.601C128.521 110.601 129.762 113.174 129.857 114.127C129.905 115.033 128.474 119.56 131.193 123.991C133.912 128.423 137.824 129.138 139.256 129.424C140.734 129.71 144.026 127.041 145.839 124.849C147.652 122.657 154.808 112.221 153.615 105.169C153.615 105.169 151.421 102.167 144.217 100.403C137.013 98.5926 139.971 103.215 137.204 105.788C133.722 108.886 130.621 108.028 130.525 106.694Z" fill="url(#paint10_linear_1330_3761)"/>
<path d="M144.884 125.04C143.739 125.85 143.739 123.277 142.451 121.942C141.115 120.656 138.396 120.703 135.82 120.799C133.244 120.846 132.623 121.132 132.099 120.132C131.574 119.131 130.429 116.891 130.572 116.033C130.715 115.176 131.431 114.127 131.288 113.508C131.145 112.888 129.189 109.553 129.189 109.553C129.189 109.553 126.899 112.745 125.754 114.747C124.609 116.748 125.467 125.183 127.805 129.757C130.143 134.332 134.675 134.904 137.346 134.046C140.018 133.188 146.697 125.326 148.415 121.085C148.415 121.085 146.029 124.23 144.884 125.04ZM139.35 127.851C138.73 127.851 135.486 126.517 134.961 126.136C134.436 125.755 134.15 123.42 134.15 123.42C134.15 123.42 138.205 123.372 139.732 123.42C141.258 123.467 142.165 126.469 142.165 126.469C142.165 126.469 139.923 127.851 139.35 127.851Z" fill="url(#paint11_linear_1330_3761)"/>
<path d="M51.4739 154.87C51.4739 154.87 47.9913 134.856 49.9473 132.95C51.9033 130.996 53.1437 127.279 52.0941 124.42C51.0923 121.609 51.6171 119.369 52.762 117.797C53.907 116.224 54.5749 112.46 52.4281 112.221C50.2813 111.983 49.5657 115.557 49.7565 116.986C49.995 118.464 48.7546 120.179 47.8482 118.559C46.9418 116.986 45.1289 113.222 45.1289 113.222C45.606 111.745 45.9399 106.217 44.5564 105.741C43.1729 105.264 42.1711 107.122 42.1711 107.122C42.1711 107.122 41.694 97.1631 41.0261 96.9249C40.3582 96.6866 38.6407 97.9256 38.2114 100.308C37.7343 102.691 36.3985 106.98 36.3985 108.457C36.3985 109.934 38.4976 115.748 38.593 115.89C38.6884 116.033 37.8774 120.179 37.8774 120.513C37.8774 120.799 37.9251 122.276 36.7802 134.284C36.0646 141.956 35.1581 157.634 36.5416 169.547C42.1711 173.216 51.4739 165.163 51.4739 154.87Z" fill="url(#paint12_linear_1330_3761)"/>
<path d="M211.818 127.232C211.818 127.232 214.299 123.229 214.204 121.942C214.108 120.656 213.727 119.893 211.914 119.417C211.914 119.417 212.152 115.938 210.816 115.462C209.481 114.985 208.24 116.939 208.24 116.939C208.24 116.939 206.38 115.748 205.139 118.225C203.851 120.703 201.657 127.661 200.559 128.709C199.462 129.805 195.693 134.808 194.501 134.475C193.308 134.141 192.545 132.283 192.449 129.9C192.354 127.518 189.968 124.182 187.917 125.326C185.866 126.422 189.014 129.471 189.3 133.141C189.539 136.81 189.301 137.477 190.923 140.908C192.545 144.339 193.88 148.103 193.88 148.103C193.88 148.103 181.381 170.309 179.855 168.546C174.416 173.502 176.229 190.752 185.102 192.039C193.451 184.605 203.136 167.879 207.477 150.677C213.536 126.898 211.818 127.232 211.818 127.232Z" fill="url(#paint13_linear_1330_3761)"/>
<path d="M86.2029 136.19C84.39 125.993 79.4285 124.468 79.4285 124.468C59.2484 135.38 51.4722 154.918 51.4722 154.918C51.4722 165.163 42.1693 173.264 36.4922 169.642C37.2555 176.409 38.7821 181.937 41.5014 184.033C48.9914 189.942 69.41 177.028 82.5772 165.544C88.2543 156.586 88.0158 146.388 86.2029 136.19Z" fill="url(#paint14_linear_1330_3761)" stroke="url(#paint15_linear_1330_3761)" stroke-miterlimit="10"/>
<path d="M179.855 168.499C176.182 164.257 168.358 134.808 159.246 128.709C164.494 143.433 159.294 162.494 150.659 173.121C150.611 173.168 150.563 173.264 150.516 173.311C155.954 183.843 168.12 194.803 176.564 195.994C178.997 196.327 181.955 194.85 185.151 191.991C176.23 190.705 174.417 173.502 179.855 168.499Z" fill="url(#paint16_linear_1330_3761)" stroke="url(#paint17_linear_1330_3761)" stroke-miterlimit="10"/>
<path d="M145.648 208.431H120.697C119.266 208.431 118.121 207.288 118.121 205.858C118.121 205.191 118.646 204.667 119.314 204.667H145.648C146.316 204.667 146.841 205.191 146.841 205.858V207.288C146.841 207.907 146.268 208.431 145.648 208.431Z" fill="url(#paint18_linear_1330_3761)"/>
<path d="M197.078 209.384H140.211C136.919 209.384 134.534 206.287 135.44 203.094L143.98 172.072C144.552 169.928 146.556 168.403 148.75 168.403H205.617C208.909 168.403 211.294 171.501 210.388 174.693L201.848 205.715C201.276 207.907 199.32 209.384 197.078 209.384Z" fill="url(#paint19_linear_1330_3761)"/>
<path d="M96.1269 183.175H77.5689C77.4735 183.175 77.4258 183.128 77.4258 183.033V182.222C77.4258 182.127 77.4735 182.079 77.5689 182.079H96.1269C96.2223 182.079 96.2701 182.127 96.2701 182.222V183.033C96.2701 183.128 96.2223 183.175 96.1269 183.175Z" fill="url(#paint20_linear_1330_3761)"/>
<path d="M96.6532 183.938L96.5101 183.461C96.4624 183.318 96.3192 183.176 96.1284 183.176H77.475C77.3318 183.176 77.141 183.271 77.0933 183.461L76.9502 183.938C76.9025 184.033 76.9979 184.176 77.0933 184.176H96.4147C96.6055 184.176 96.7009 184.081 96.6532 183.938Z" fill="url(#paint21_linear_1330_3761)"/>
<path d="M94.9829 182.127H78.7148L78.9534 180.03C78.9534 179.84 79.1442 179.697 79.335 179.697H94.4105C94.6013 179.697 94.7444 179.84 94.7921 180.03L94.9829 182.127Z" fill="url(#paint22_linear_1330_3761)"/>
<path d="M95.7956 184.129L93.4102 207.955C93.3625 208.241 93.1717 208.431 92.8854 208.431H80.8633C80.577 208.431 80.3862 208.241 80.3385 207.955L77.9531 184.129H95.7956Z" fill="url(#paint23_linear_1330_3761)"/>
<path d="M95.7964 190.705L94.556 201.903H79.1466L77.9062 190.705H95.7964Z" fill="url(#paint24_linear_1330_3761)"/>
<path d="M91.4544 196.327C91.4544 198.853 89.403 200.95 86.8268 200.95C84.2983 200.95 82.1992 198.901 82.1992 196.327C82.1992 193.802 84.2506 191.705 86.8268 191.705C89.403 191.705 91.4544 193.754 91.4544 196.327Z" fill="url(#paint25_linear_1330_3761)"/>
<path d="M102.714 208.717C90.7392 212.672 74.9959 225.252 81.1024 243.741C87.2089 262.231 107.341 262.993 119.316 259.085L102.714 208.717Z" fill="url(#paint26_linear_1330_3761)"/>
<path d="M123.942 199.52C122.606 199.568 121.366 199.901 120.173 200.426L101.806 206.477C93.6957 210.051 89.9746 223.918 95.2701 239.929C100.566 255.988 111.538 264.184 119.935 261.468L138.35 255.416C139.542 255.035 140.735 254.416 141.784 253.558C148.75 248.03 150.133 234.068 145.983 221.536C141.88 208.955 132.625 199.091 123.942 199.52Z" fill="url(#paint27_linear_1330_3761)"/>
<path d="M144.649 222.012C148.418 233.496 147.321 246.219 141.214 251.175C133.676 257.275 121.702 249.793 116.168 232.972C110.634 216.199 115.548 202.189 124.946 201.76C132.579 201.474 140.88 210.528 144.649 222.012Z" fill="url(#paint28_linear_1330_3761)"/>
<path d="M137.303 235.259C137.971 237.356 137.685 239.548 136.588 240.215C135.443 240.882 133.916 239.691 133.2 237.499C132.485 235.307 132.867 233.02 134.059 232.496C135.156 231.924 136.588 233.163 137.303 235.259Z" fill="url(#paint29_linear_1330_3761)"/>
<path d="M131.15 216.723C131.818 218.819 131.436 220.773 130.243 221.107C129.003 221.488 127.381 220.011 126.665 217.819C125.95 215.627 126.427 213.625 127.715 213.387C128.955 213.149 130.482 214.626 131.15 216.723Z" fill="url(#paint30_linear_1330_3761)"/>
<path d="M171.934 243.217L147.174 241.597C145.314 241.454 143.882 239.882 144.025 238.023C144.169 236.165 145.743 234.735 147.604 234.878L172.363 236.498C174.224 236.641 175.655 238.214 175.512 240.072C175.417 241.931 173.795 243.313 171.934 243.217ZM176.848 219.963C176.991 218.105 175.56 216.484 173.699 216.389L148.939 214.769C147.079 214.626 145.457 216.055 145.361 217.914C145.218 219.772 146.649 221.393 148.51 221.488L173.27 223.108C175.13 223.251 176.705 221.821 176.848 219.963Z" fill="url(#paint31_linear_1330_3761)"/>
<path d="M197.553 202.856C196.265 202.427 195.025 202.236 193.737 202.284L174.463 201.045C165.59 201.331 157.002 212.815 155.905 229.684C154.808 246.553 161.916 258.275 170.694 258.847L189.968 260.086C191.256 260.182 192.544 260.039 193.88 259.657C202.419 257.132 208.908 244.695 209.766 231.495C210.625 218.295 205.711 205.667 197.553 202.856Z" fill="url(#paint32_linear_1330_3761)"/>
<path d="M195.168 204.81C186.962 204.285 178.852 214.96 177.802 231.018C176.8 246.315 183.527 257.132 191.733 257.656C202.324 258.323 222.504 252.653 223.792 233.21C225.032 213.816 210.052 205.81 195.168 204.81Z" fill="url(#paint33_linear_1330_3761)"/>
<path d="M236.147 208.431H217.446C216.969 208.431 216.587 208.05 216.539 207.573L215.156 187.75C215.108 187.226 215.538 186.797 216.062 186.797H237.531C238.055 186.797 238.485 187.226 238.437 187.75L237.054 207.573C237.006 208.098 236.624 208.431 236.147 208.431Z" fill="url(#paint34_linear_1330_3761)"/>
<path d="M239.44 191.896H214.107C213.917 191.896 213.773 191.753 213.773 191.562V185.367C213.773 185.177 213.917 185.034 214.107 185.034H239.44C239.631 185.034 239.774 185.177 239.774 185.367V191.562C239.822 191.705 239.631 191.896 239.44 191.896Z" fill="url(#paint35_linear_1330_3761)"/>
<path d="M228.277 184.986H219.309V168.451C219.309 165.973 221.312 163.972 223.793 163.972C226.274 163.972 228.277 165.973 228.277 168.451V184.986Z" fill="url(#paint36_linear_1330_3761)"/>
<path d="M234.242 184.986H227.516V175.075C227.516 173.216 228.995 171.739 230.855 171.739C232.716 171.739 234.195 173.216 234.195 175.075V184.986H234.242Z" fill="url(#paint37_linear_1330_3761)"/>
<defs>
<linearGradient id="paint0_linear_1330_3761" x1="211.92" y1="28.5137" x2="215.842" y2="113.965" gradientUnits="userSpaceOnUse">
<stop stop-color="#FBFBEA"/>
<stop offset="0.114" stop-color="#EDF1E1"/>
<stop offset="0.3257" stop-color="#CCDECB"/>
<stop offset="0.6122" stop-color="#97C3AB"/>
<stop offset="0.9593" stop-color="#45A586"/>
<stop offset="1" stop-color="#35A282"/>
</linearGradient>
<linearGradient id="paint1_linear_1330_3761" x1="87.8921" y1="-33.9062" x2="87.8921" y2="134.835" gradientUnits="userSpaceOnUse">
<stop stop-color="#424B9F"/>
<stop offset="1" stop-color="#913192"/>
</linearGradient>
<linearGradient id="paint2_linear_1330_3761" x1="14.1254" y1="76.6252" x2="161.659" y2="76.6252" gradientUnits="userSpaceOnUse">
<stop stop-color="#424B9F"/>
<stop offset="1" stop-color="#913192"/>
</linearGradient>
<linearGradient id="paint3_linear_1330_3761" x1="87.8909" y1="8.35425" x2="87.8909" y2="178.717" gradientUnits="userSpaceOnUse">
<stop stop-color="#FBFBEA"/>
<stop offset="1" stop-color="#FFD98F"/>
</linearGradient>
<linearGradient id="paint4_linear_1330_3761" x1="88.0418" y1="114.414" x2="88.0418" y2="24.7363" gradientUnits="userSpaceOnUse">
<stop stop-color="#0E232B"/>
<stop offset="0.1849" stop-color="#132D36"/>
<stop offset="0.5291" stop-color="#173B47"/>
<stop offset="0.8132" stop-color="#184352"/>
<stop offset="1" stop-color="#184656"/>
</linearGradient>
<linearGradient id="paint5_linear_1330_3761" x1="77.5789" y1="145.82" x2="105.866" y2="186.978" gradientUnits="userSpaceOnUse">
<stop stop-color="#F9C04C"/>
<stop offset="0.3102" stop-color="#E6A84C"/>
<stop offset="0.7535" stop-color="#D28D4B"/>
<stop offset="1" stop-color="#CC844A"/>
</linearGradient>
<linearGradient id="paint6_linear_1330_3761" x1="108.226" y1="201.597" x2="138.565" y2="35.6701" gradientUnits="userSpaceOnUse">
<stop stop-color="#424B9F"/>
<stop offset="1" stop-color="#913192"/>
</linearGradient>
<linearGradient id="paint7_linear_1330_3761" x1="78.8" y1="156.932" x2="161.588" y2="156.932" gradientUnits="userSpaceOnUse">
<stop stop-color="#424B9F"/>
<stop offset="1" stop-color="#913192"/>
</linearGradient>
<linearGradient id="paint8_linear_1330_3761" x1="133.101" y1="111.701" x2="164.061" y2="76.4363" gradientUnits="userSpaceOnUse">
<stop stop-color="#0E232B"/>
<stop offset="1" stop-color="#184656"/>
</linearGradient>
<linearGradient id="paint9_linear_1330_3761" x1="100.86" y1="150.403" x2="137.505" y2="114.61" gradientUnits="userSpaceOnUse">
<stop stop-color="#F29C80"/>
<stop offset="0.3806" stop-color="#ED8270"/>
<stop offset="0.7786" stop-color="#E96A62"/>
<stop offset="1" stop-color="#E85F5E"/>
</linearGradient>
<linearGradient id="paint10_linear_1330_3761" x1="120.647" y1="134.975" x2="158.046" y2="85.5206" gradientUnits="userSpaceOnUse">
<stop stop-color="#F29C80"/>
<stop offset="0.3806" stop-color="#ED8270"/>
<stop offset="0.7786" stop-color="#E96A62"/>
<stop offset="1" stop-color="#E85F5E"/>
</linearGradient>
<linearGradient id="paint11_linear_1330_3761" x1="123.325" y1="134.348" x2="148.167" y2="105.023" gradientUnits="userSpaceOnUse">
<stop stop-color="#0E232B"/>
<stop offset="0.4315" stop-color="#15333E"/>
<stop offset="1" stop-color="#184656"/>
</linearGradient>
<linearGradient id="paint12_linear_1330_3761" x1="23.3185" y1="88.5319" x2="63.4045" y2="186.141" gradientUnits="userSpaceOnUse">
<stop stop-color="#F29C80"/>
<stop offset="0.3806" stop-color="#ED8270"/>
<stop offset="0.7786" stop-color="#E96A62"/>
<stop offset="1" stop-color="#E85F5E"/>
</linearGradient>
<linearGradient id="paint13_linear_1330_3761" x1="232.352" y1="92.2422" x2="150.449" y2="213.026" gradientUnits="userSpaceOnUse">
<stop stop-color="#F29C80"/>
<stop offset="0.3806" stop-color="#ED8270"/>
<stop offset="0.7786" stop-color="#E96A62"/>
<stop offset="1" stop-color="#E85F5E"/>
</linearGradient>
<linearGradient id="paint14_linear_1330_3761" x1="61.9223" y1="195.8" x2="61.9223" y2="105.904" gradientUnits="userSpaceOnUse">
<stop stop-color="#424B9F"/>
<stop offset="1" stop-color="#913192"/>
</linearGradient>
<linearGradient id="paint15_linear_1330_3761" x1="36.1976" y1="154.963" x2="87.5906" y2="154.963" gradientUnits="userSpaceOnUse">
<stop stop-color="#424B9F"/>
<stop offset="1" stop-color="#913192"/>
</linearGradient>
<linearGradient id="paint16_linear_1330_3761" x1="156.433" y1="177.493" x2="199.721" y2="130.298" gradientUnits="userSpaceOnUse">
<stop stop-color="#424B9F"/>
<stop offset="1" stop-color="#913192"/>
</linearGradient>
<linearGradient id="paint17_linear_1330_3761" x1="150.207" y1="162.214" x2="185.642" y2="162.214" gradientUnits="userSpaceOnUse">
<stop stop-color="#424B9F"/>
<stop offset="1" stop-color="#913192"/>
</linearGradient>
<linearGradient id="paint18_linear_1330_3761" x1="139.358" y1="209.725" x2="96.0363" y2="188.153" gradientUnits="userSpaceOnUse">
<stop stop-color="#0E232B"/>
<stop offset="0.1173" stop-color="#1C3944"/>
<stop offset="0.2408" stop-color="#264D5B"/>
<stop offset="0.3703" stop-color="#2D5E70"/>
<stop offset="0.5054" stop-color="#306C81"/>
<stop offset="0.6484" stop-color="#32758E"/>
<stop offset="0.8049" stop-color="#327B96"/>
<stop offset="1" stop-color="#327D98"/>
</linearGradient>
<linearGradient id="paint19_linear_1330_3761" x1="171.464" y1="206.721" x2="176.898" y2="140.082" gradientUnits="userSpaceOnUse">
<stop stop-color="#0E232B"/>
<stop offset="0.1173" stop-color="#1C3944"/>
<stop offset="0.2408" stop-color="#264D5B"/>
<stop offset="0.3703" stop-color="#2D5E70"/>
<stop offset="0.5054" stop-color="#306C81"/>
<stop offset="0.6484" stop-color="#32758E"/>
<stop offset="0.8049" stop-color="#327B96"/>
<stop offset="1" stop-color="#327D98"/>
</linearGradient>
<linearGradient id="paint20_linear_1330_3761" x1="86.8386" y1="183.07" x2="86.8386" y2="182.246" gradientUnits="userSpaceOnUse">
<stop stop-color="#184656"/>
<stop offset="0.2298" stop-color="#1D4F60"/>
<stop offset="0.6549" stop-color="#29667B"/>
<stop offset="1" stop-color="#327D98"/>
</linearGradient>
<linearGradient id="paint21_linear_1330_3761" x1="86.8401" y1="184.112" x2="86.8401" y2="183.235" gradientUnits="userSpaceOnUse">
<stop stop-color="#184656"/>
<stop offset="0.2241" stop-color="#1C4C60"/>
<stop offset="0.6385" stop-color="#255B7B"/>
<stop offset="1" stop-color="#2A6A9A"/>
</linearGradient>
<linearGradient id="paint22_linear_1330_3761" x1="79.1039" y1="180.911" x2="95.0973" y2="180.911" gradientUnits="userSpaceOnUse">
<stop stop-color="#184656"/>
<stop offset="0.2298" stop-color="#1D4F60"/>
<stop offset="0.6549" stop-color="#29667B"/>
<stop offset="1" stop-color="#327D98"/>
</linearGradient>
<linearGradient id="paint23_linear_1330_3761" x1="96.7212" y1="196.302" x2="77.8986" y2="196.302" gradientUnits="userSpaceOnUse">
<stop stop-color="#FBFBEA"/>
<stop offset="0.108" stop-color="#ECEDE2"/>
<stop offset="0.3088" stop-color="#C8D3D2"/>
<stop offset="0.5805" stop-color="#93AEBA"/>
<stop offset="0.9094" stop-color="#4D879F"/>
<stop offset="1" stop-color="#327D98"/>
</linearGradient>
<linearGradient id="paint24_linear_1330_3761" x1="79.0952" y1="196.302" x2="92.8938" y2="196.302" gradientUnits="userSpaceOnUse">
<stop stop-color="#184656"/>
<stop offset="0.2298" stop-color="#1D4F60"/>
<stop offset="0.6549" stop-color="#29667B"/>
<stop offset="1" stop-color="#327D98"/>
</linearGradient>
<linearGradient id="paint25_linear_1330_3761" x1="94.2843" y1="196.321" x2="79.3291" y2="196.321" gradientUnits="userSpaceOnUse">
<stop stop-color="#FBFBEA"/>
<stop offset="0.108" stop-color="#ECEDE2"/>
<stop offset="0.3088" stop-color="#C8D3D2"/>
<stop offset="0.5805" stop-color="#93AEBA"/>
<stop offset="0.9094" stop-color="#4D879F"/>
<stop offset="1" stop-color="#327D98"/>
</linearGradient>
<linearGradient id="paint26_linear_1330_3761" x1="120.023" y1="232.832" x2="55.6582" y2="242.409" gradientUnits="userSpaceOnUse">
<stop stop-color="#F9C04C"/>
<stop offset="1" stop-color="#FFD98F"/>
</linearGradient>
<linearGradient id="paint27_linear_1330_3761" x1="112.328" y1="205.416" x2="129.6" y2="257.92" gradientUnits="userSpaceOnUse">
<stop stop-color="#F9C04C"/>
<stop offset="0.3102" stop-color="#E6A84C"/>
<stop offset="0.7535" stop-color="#D28D4B"/>
<stop offset="1" stop-color="#CC844A"/>
</linearGradient>
<linearGradient id="paint28_linear_1330_3761" x1="123.948" y1="273.553" x2="137.285" y2="177.27" gradientUnits="userSpaceOnUse">
<stop stop-color="#F9C04C"/>
<stop offset="0.369" stop-color="#FCCB6C"/>
<stop offset="0.7745" stop-color="#FED585"/>
<stop offset="1" stop-color="#FFD98F"/>
</linearGradient>
<linearGradient id="paint29_linear_1330_3761" x1="128.129" y1="238.705" x2="138.042" y2="235.436" gradientUnits="userSpaceOnUse">
<stop stop-color="#CC844A"/>
<stop offset="0.0757375" stop-color="#C07D49"/>
<stop offset="0.5008" stop-color="#895C42"/>
<stop offset="0.8221" stop-color="#6B493B"/>
<stop offset="1" stop-color="#604338"/>
</linearGradient>
<linearGradient id="paint30_linear_1330_3761" x1="121.833" y1="219.603" x2="131.745" y2="216.335" gradientUnits="userSpaceOnUse">
<stop stop-color="#CC844A"/>
<stop offset="0.0757375" stop-color="#C07D49"/>
<stop offset="0.5008" stop-color="#895C42"/>
<stop offset="0.8221" stop-color="#6B493B"/>
<stop offset="1" stop-color="#604338"/>
</linearGradient>
<linearGradient id="paint31_linear_1330_3761" x1="118.816" y1="232.334" x2="152.919" y2="229.587" gradientUnits="userSpaceOnUse">
<stop stop-color="#CC844A"/>
<stop offset="0.0757375" stop-color="#C07D49"/>
<stop offset="0.5008" stop-color="#895C42"/>
<stop offset="0.8221" stop-color="#6B493B"/>
<stop offset="1" stop-color="#604338"/>
</linearGradient>
<linearGradient id="paint32_linear_1330_3761" x1="184.614" y1="203.066" x2="181.056" y2="257.997" gradientUnits="userSpaceOnUse">
<stop stop-color="#F9C04C"/>
<stop offset="0.3102" stop-color="#E6A84C"/>
<stop offset="0.7535" stop-color="#D28D4B"/>
<stop offset="1" stop-color="#CC844A"/>
</linearGradient>
<linearGradient id="paint33_linear_1330_3761" x1="147.087" y1="247.312" x2="253.497" y2="212.363" gradientUnits="userSpaceOnUse">
<stop stop-color="#F9C04C"/>
<stop offset="1" stop-color="#FFD98F"/>
</linearGradient>
<linearGradient id="paint34_linear_1330_3761" x1="215.196" y1="197.646" x2="239.837" y2="197.646" gradientUnits="userSpaceOnUse">
<stop stop-color="#CC844A"/>
<stop offset="0.2996" stop-color="#9D6846"/>
<stop offset="0.5958" stop-color="#7A533F"/>
<stop offset="0.8394" stop-color="#67473A"/>
<stop offset="1" stop-color="#604338"/>
</linearGradient>
<linearGradient id="paint35_linear_1330_3761" x1="241.984" y1="181.324" x2="205.864" y2="198.226" gradientUnits="userSpaceOnUse">
<stop stop-color="#CC844A"/>
<stop offset="0.2996" stop-color="#9D6846"/>
<stop offset="0.5958" stop-color="#7A533F"/>
<stop offset="0.8394" stop-color="#67473A"/>
<stop offset="1" stop-color="#604338"/>
</linearGradient>
<linearGradient id="paint36_linear_1330_3761" x1="223.815" y1="160.999" x2="223.815" y2="184.269" gradientUnits="userSpaceOnUse">
<stop stop-color="#35A081"/>
<stop offset="0.4387" stop-color="#29766F"/>
<stop offset="1" stop-color="#184656"/>
</linearGradient>
<linearGradient id="paint37_linear_1330_3761" x1="230.877" y1="170.454" x2="230.877" y2="184.855" gradientUnits="userSpaceOnUse">
<stop stop-color="#35A081"/>
<stop offset="0.4387" stop-color="#29766F"/>
<stop offset="1" stop-color="#184656"/>
</linearGradient>
</defs>
</svg>
