<svg width="16" height="16" viewBox="0 0 16 16" fill="none" xmlns="http://www.w3.org/2000/svg">
<circle cx="8" cy="8" r="8" fill="#95239C"/>
<g clip-path="url(#clip0_4138_9193)">
<path d="M13.5746 8.84359C13.3314 9.02503 13.0319 9.07138 12.7587 9.17695C12.6357 9.22566 12.5101 9.26783 12.3826 9.30328C12.303 9.32465 12.2884 9.36604 12.2905 9.44055C12.2986 9.72268 12.2994 10.0045 12.3039 10.2874C12.3096 10.6882 12.1052 10.8998 11.7071 10.9048C10.3526 10.9221 8.99826 10.9396 7.64403 10.9575C7.57654 10.9584 7.50957 10.9695 7.44544 10.9906C6.62212 11.2693 5.79932 11.5495 4.97704 11.8311C4.59771 11.9602 4.3364 11.8308 4.2074 11.4498C4.1569 11.301 4.10515 11.1532 4.05392 11.0029C3.72098 11.0077 3.39222 11.0166 3.06374 11.015C2.92453 11.0146 2.78519 10.995 2.64681 10.9829L2.46675 10.8657C2.33473 10.6946 2.32484 10.4961 2.32306 10.2898C2.31351 9.31838 2.29404 8.34695 2.2845 7.37549C2.28046 6.92066 2.29049 6.46575 2.29432 6.01092L2.3998 5.84887C2.57786 5.69714 2.79088 5.6902 3.01111 5.68794C4.17859 5.67725 5.34619 5.66254 6.51391 5.6438C6.58139 5.64262 6.64829 5.63106 6.71225 5.60952C8.32181 5.06217 9.93206 4.51288 11.543 3.96165C11.6831 3.91336 11.8335 3.90321 11.9788 3.93224L12.1581 4.04898C12.2131 4.1531 12.2809 4.25366 12.3192 4.364C12.757 5.62792 13.1885 6.89421 13.6267 8.15804C13.6915 8.34477 13.7317 8.52548 13.6574 8.71635L13.5746 8.84359ZM12.2863 8.99796C12.6 8.89107 12.9008 8.78917 13.2016 8.68559C13.367 8.62848 13.4123 8.53629 13.3552 8.36991C12.9039 7.05693 12.4525 5.74427 12.0008 4.43192C11.9345 4.2387 11.8505 4.19974 11.6581 4.26525L9.30176 5.06864L7.7414 5.60062C7.77439 5.62053 7.81253 5.63026 7.85103 5.62857C8.25476 5.62375 8.65871 5.61701 9.06246 5.61322C9.20959 5.61192 9.2888 5.72022 9.23479 5.84469C9.19604 5.93362 9.11565 5.9353 9.03509 5.93618C7.67989 5.95274 6.32555 5.97009 4.97207 5.98822L4.17709 5.99916C4.03239 6.9109 3.51183 7.44124 2.60838 7.6099L2.62996 9.12104C3.05865 9.16083 3.41665 9.32551 3.71483 9.61359C4.013 9.90168 4.18611 10.2622 4.23755 10.6778L10.3946 10.5977C10.5436 9.67781 11.0667 9.14982 11.9635 8.98712L11.9526 8.2352L11.942 7.47908C11.5351 7.44359 11.1527 7.26923 10.8591 6.98526C10.5655 6.70128 10.3785 6.32496 10.3295 5.91944C10.2232 5.92101 10.1161 5.9248 10.0091 5.92319C9.90217 5.92159 9.83863 5.85801 9.84023 5.75788C9.84183 5.66458 9.90273 5.60305 10.007 5.60151C10.5823 5.59289 11.1577 5.58221 11.7331 5.58146C12.0096 5.58097 12.2261 5.7998 12.244 6.07634C12.2489 6.15479 12.2478 6.2337 12.2489 6.31234L12.2863 8.99796ZM2.63456 9.45319C2.6389 9.78118 2.64328 10.1087 2.64772 10.4359C2.65063 10.6288 2.72146 10.6975 2.91729 10.6954C3.22379 10.6919 3.53046 10.6876 3.83731 10.6825C3.86043 10.6809 3.88343 10.6778 3.90618 10.6733C3.82132 10.0213 3.25513 9.47808 2.63456 9.45319ZM11.9669 9.33111C11.3689 9.34721 10.774 9.956 10.7349 10.5936C11.0881 10.5887 11.4407 10.5869 11.7931 10.577C11.9059 10.5738 11.9819 10.4859 11.9814 10.369C11.9795 10.0233 11.9729 9.67747 11.9669 9.33111ZM11.9366 7.1471C11.9313 6.79708 11.9289 6.44751 11.9191 6.09802C11.9159 5.97697 11.833 5.90319 11.7074 5.90345C11.3621 5.90462 11.0166 5.91079 10.6711 5.9149C10.699 6.44503 11.1976 7.08409 11.9376 7.14772L11.9366 7.1471ZM2.60254 7.27284C3.30383 7.18895 3.80485 6.58572 3.83223 6.00334C3.47625 6.00884 3.12056 6.01075 2.76512 6.02172C2.66328 6.02379 2.59121 6.10984 2.59145 6.21869C2.59241 6.56692 2.5987 6.9159 2.60254 7.27284ZM6.41271 10.9992L6.40734 10.9728L4.39307 10.9991C4.43787 11.1288 4.47743 11.2434 4.51667 11.3585C4.58277 11.5536 4.66944 11.5964 4.8667 11.5286C5.35005 11.3647 5.83349 11.1996 6.31702 11.0333C6.35003 11.022 6.38144 11.01 6.41318 10.9985L6.41271 10.9992Z" fill="white"/>
<path d="M9.05692 9.45531C8.81126 9.83305 8.45104 10.1222 8.02908 10.2802C7.60713 10.4383 7.14562 10.457 6.71225 10.3337C6.58615 10.2974 6.53751 10.2377 6.55592 10.1417C6.5781 10.0272 6.65875 9.98369 6.79559 10.0218C7.15023 10.1197 7.50462 10.1214 7.85136 9.99881C8.49554 9.7711 8.90638 9.32007 9.04014 8.65039C9.1739 7.98071 8.97257 7.39369 8.45078 6.94398C7.63782 6.24219 6.43065 6.39908 5.80938 7.27369C5.31785 7.96684 5.40204 8.92707 6.01058 9.55801C6.10011 9.65047 6.10775 9.7238 6.03882 9.80028C5.96511 9.88149 5.87427 9.87979 5.78797 9.79183C5.44326 9.44029 5.23511 9.02178 5.183 8.53053C5.00809 6.90523 6.64513 5.70675 8.14017 6.36205C9.33136 6.88451 9.77122 8.36953 9.05692 9.45531Z" fill="white"/>
<path d="M11.3075 8.34745C11.2409 8.37249 11.1907 8.40506 11.1393 8.40681C10.8437 8.4157 10.548 8.41839 10.2522 8.42004C10.1473 8.42008 10.0767 8.35157 10.0772 8.25892C10.0777 8.16627 10.1469 8.09925 10.2533 8.09808C10.5452 8.09289 10.8373 8.08619 11.1292 8.09094C11.1595 8.09389 11.1889 8.10286 11.2157 8.11731C11.2425 8.13177 11.2662 8.15142 11.2853 8.17511C11.3144 8.21182 11.3016 8.27973 11.3075 8.34745Z" fill="white"/>
<path d="M3.30911 8.4895C3.2944 8.4307 3.26161 8.36766 3.26804 8.30895C3.27665 8.23218 3.34109 8.18937 3.42204 8.18737C3.55374 8.18457 3.68586 8.18376 3.81758 8.18199C3.97797 8.17976 4.13835 8.17649 4.29845 8.17576C4.41905 8.17532 4.49541 8.24074 4.49315 8.33873C4.49089 8.43673 4.42495 8.49601 4.3042 8.49773C4.01918 8.50292 3.73416 8.50618 3.44915 8.50751C3.40213 8.50453 3.35535 8.49852 3.30911 8.4895V8.4895Z" fill="white"/>
</g>
<defs>
<clipPath id="clip0_4138_9193">
<rect width="11" height="11" fill="white" transform="translate(6.125 0.123779) rotate(33.0616)"/>
</clipPath>
</defs>
</svg>
