<svg width="37" height="37" viewBox="0 0 37 37" fill="none" xmlns="http://www.w3.org/2000/svg">
<path d="M18.5 2.3125C9.56074 2.3125 2.3125 9.56074 2.3125 18.5C2.3125 27.4393 9.56074 34.6875 18.5 34.6875C27.4393 34.6875 34.6875 27.4393 34.6875 18.5C34.6875 9.56074 27.4393 2.3125 18.5 2.3125ZM23.7067 18.7493L15.8153 24.4908C15.7721 24.5219 15.7211 24.5405 15.6679 24.5445C15.6148 24.5485 15.5616 24.5377 15.5142 24.5135C15.4668 24.4892 15.427 24.4523 15.3991 24.4069C15.3713 24.3615 15.3565 24.3092 15.3564 24.256V12.7802C15.3563 12.7268 15.3709 12.6744 15.3987 12.6288C15.4264 12.5832 15.4663 12.5462 15.5138 12.5219C15.5613 12.4976 15.6147 12.4869 15.6679 12.491C15.7211 12.4952 15.7721 12.514 15.8153 12.5453L23.7067 18.2832C23.744 18.3096 23.7744 18.3445 23.7954 18.385C23.8164 18.4256 23.8274 18.4706 23.8274 18.5163C23.8274 18.5619 23.8164 18.6069 23.7954 18.6475C23.7744 18.688 23.744 18.723 23.7067 18.7493Z" fill="url(#paint0_linear_1375_4210)"/>
<defs>
<linearGradient id="paint0_linear_1375_4210" x1="36.0915" y1="18.5" x2="2.3125" y2="18.5" gradientUnits="userSpaceOnUse">
<stop stop-color="#95239C"/>
<stop offset="1" stop-color="#3A43AF"/>
</linearGradient>
</defs>
</svg>
