<svg width="23" height="22" viewBox="0 0 23 22" fill="none" xmlns="http://www.w3.org/2000/svg">
<path d="M2.51886 0.574965L22.0839 9.93218C22.2816 10.0266 22.4486 10.1751 22.5655 10.3604C22.6824 10.5458 22.7444 10.7605 22.7444 10.9796C22.7444 11.1987 22.6824 11.4134 22.5655 11.5988C22.4486 11.7841 22.2816 11.9326 22.0839 12.027L2.51886 21.3843C2.31829 21.4803 2.09434 21.5167 1.87367 21.4892C1.65299 21.4616 1.44487 21.3713 1.27408 21.2289C1.10328 21.0864 0.976998 20.8979 0.910251 20.6858C0.843503 20.4737 0.839103 20.2468 0.897573 20.0322L2.855 12.8562C2.87896 12.7683 2.92828 12.6894 2.99681 12.6292C3.06534 12.5691 3.15004 12.5305 3.24036 12.5183L12.7211 11.2303C12.7607 11.2247 12.7982 11.2089 12.8299 11.1845C12.8617 11.1601 12.8865 11.1279 12.9021 11.091L12.9189 11.0335C12.9262 10.9816 12.9158 10.9288 12.8893 10.8836C12.8628 10.8385 12.8219 10.8036 12.7731 10.7846L12.722 10.7707L3.25057 9.48275C3.16042 9.47029 3.07592 9.43161 3.00757 9.37152C2.93922 9.31142 2.89004 9.23257 2.86614 9.14475L0.897573 1.92789C0.838866 1.71327 0.843088 1.48629 0.909734 1.27399C0.976381 1.0617 1.10264 0.873033 1.27349 0.730469C1.44433 0.587906 1.65255 0.497452 1.87334 0.469882C2.09414 0.442312 2.31821 0.478788 2.51886 0.574965Z" fill="white"/>
</svg>
