<svg width="62" height="62" viewBox="0 0 62 62" fill="none" xmlns="http://www.w3.org/2000/svg">
<g clip-path="url(#clip0_2634_5052)">
<path d="M61.9959 18.0414C61.8375 18.9203 61.664 19.7991 61.5244 20.6818C61.3848 21.5644 61.2755 22.481 61.1472 23.375C61.0303 24.1746 60.5513 24.5066 59.7441 24.401L56.1534 23.8804C55.9303 23.8206 55.6939 23.8337 55.4788 23.9179C55.2637 24.002 55.0811 24.1528 54.9578 24.3482C54.837 24.5481 54.786 24.7824 54.8126 25.0145C54.8392 25.2465 54.942 25.4632 55.1049 25.6306C55.814 26.5686 56.5193 27.5204 57.2208 28.486C57.7941 29.2404 57.73 29.7609 56.9681 30.3343C55.4594 31.4634 53.9595 32.5874 52.4684 33.7064C51.7141 34.2571 51.2162 34.1855 50.6618 33.4575C49.9527 32.5258 49.2511 31.5941 48.5571 30.6511C48.2478 30.2324 47.8782 29.9307 47.3351 30.0589C46.7919 30.1872 46.5807 30.6549 46.5015 31.1905C46.3381 32.3699 46.1721 33.548 46.0036 34.7249C45.8905 35.5094 45.4605 35.8565 44.6647 35.7433C42.7662 35.4918 40.8703 35.2253 38.9769 34.9436C38.0415 34.8041 37.7586 34.4193 37.8755 33.4952C38.0189 32.3938 38.2112 31.2999 38.3281 30.1985C38.3884 29.8082 38.3455 29.409 38.2037 29.0405C37.9246 28.4709 37.2532 28.4257 36.6346 28.8745C35.6917 29.5648 34.7488 30.2777 33.8247 30.9793C32.9949 31.5979 32.5046 31.5338 31.8898 30.719C30.7859 29.253 29.6846 27.7844 28.5857 26.3134C27.9785 25.4986 28.0577 25.0158 28.8912 24.3896C29.8078 23.6956 30.7243 23.0016 31.6484 22.3226C31.8627 22.2035 32.0315 22.0168 32.1284 21.7915C32.2253 21.5663 32.2448 21.3153 32.184 21.0778C32.0406 20.5724 31.6295 20.3838 31.1279 20.3234C29.9964 20.1763 28.8648 20.0104 27.7333 19.8406C26.7112 19.6898 26.4019 19.3012 26.5414 18.2828C26.7929 16.427 27.0619 14.5724 27.3486 12.7191C27.4844 11.8516 27.9257 11.5385 28.7781 11.6592C29.9737 11.829 31.1731 11.9987 32.3688 12.1835C32.585 12.2409 32.8138 12.2284 33.0225 12.1477C33.2312 12.0671 33.409 11.9225 33.5305 11.7347C33.6573 11.538 33.7147 11.3045 33.6935 11.0714C33.6723 10.8383 33.5738 10.619 33.4136 10.4484C32.7309 9.55068 32.0406 8.65672 31.3881 7.73636C31.1348 7.32827 30.9068 6.90502 30.7054 6.46898C27.7563 6.49204 24.865 7.28938 22.3208 8.7812C17.542 11.5725 14.6001 15.7216 13.7929 21.1872C12.7972 28.1164 15.2111 33.7743 20.8121 38.0178C21.9437 38.8703 23.1469 39.602 23.9012 40.8581C24.5407 41.8671 24.8989 43.0287 24.9384 44.2227C24.9686 45.5957 24.9384 46.9687 24.9384 48.3379C24.9384 49.8467 25.7418 50.6577 27.2543 50.6652C29.8392 50.6652 32.4216 50.6652 35.0015 50.6652C36.4875 50.6652 37.2645 49.8467 37.2645 48.3757C37.2645 47.1837 37.2645 45.9918 37.2645 44.8036C37.2387 43.6183 37.5094 42.4454 38.0522 41.3914C38.595 40.3374 39.3926 39.4357 40.3724 38.7684C41.172 38.1951 41.9641 37.6067 42.7863 36.9994L44.1291 38.5082C43.7029 38.8589 43.2993 39.2097 42.8769 39.5304C42.4544 39.851 41.9905 40.1641 41.5454 40.4771C40.8472 40.9458 40.2778 41.5824 39.8896 42.3285C39.5015 43.0745 39.3069 43.9062 39.3239 44.747C39.3239 45.9993 39.3239 47.2516 39.3239 48.5001C39.3414 49.179 39.192 49.8518 38.8889 50.4595C38.5857 51.0672 38.138 51.5912 37.5851 51.9854C37.4951 52.065 37.4217 52.1617 37.3693 52.2698C37.3168 52.3779 37.2864 52.4954 37.2796 52.6153C37.2532 54.2901 37.2796 55.9686 37.2796 57.6434C37.2796 60.2611 35.5333 61.9963 32.9157 62.0113C31.705 62.0113 30.4942 62.0113 29.2835 62.0113C26.7074 62.0113 24.9573 60.2536 24.9347 57.6773C24.9196 56.0026 24.9196 54.3278 24.9347 52.6531C24.9502 52.5045 24.9229 52.3545 24.8561 52.2209C24.7893 52.0872 24.6857 51.9755 24.5575 51.8987C24.0331 51.5199 23.6083 51.0198 23.3193 50.4411C23.0303 49.8624 22.8857 49.2223 22.8979 48.5756C22.8791 47.6665 22.8979 46.7612 22.8979 45.6975L21.5778 47.0291C20.865 47.7382 20.5104 47.7834 19.6919 47.2101L17.1686 45.475C16.931 46.584 16.716 47.6024 16.4897 48.6208C16.3162 49.4092 16.0032 49.6619 15.1922 49.6657C13.9828 49.6657 12.772 49.6657 11.56 49.6657C10.7793 49.6657 10.4662 49.4092 10.2927 48.6548C10.1758 48.1456 10.0627 47.6326 9.95328 47.1196C9.8439 46.6066 9.74584 46.1011 9.62137 45.4901C9.2442 45.7428 8.89342 45.9654 8.55397 46.1954C7.9882 46.5726 7.42244 46.9838 6.86045 47.3572C6.75674 47.4485 6.63553 47.5177 6.50422 47.5607C6.3729 47.6036 6.23422 47.6194 6.09662 47.6071C5.95901 47.5947 5.82535 47.5545 5.70378 47.4888C5.58221 47.4232 5.47527 47.3335 5.38947 47.2252C4.4063 46.2671 3.43445 45.2977 2.47391 44.317C1.96472 43.7965 1.94209 43.3778 2.36453 42.7479C2.94915 41.8803 3.54886 41.0203 4.1976 40.0735L1.51211 39.4851C1.31598 39.4436 1.11608 39.4097 0.92372 39.3569C0.648899 39.321 0.399057 39.1789 0.227734 38.961C0.056411 38.7432 -0.022761 38.4669 0.00718472 38.1913C0.00718472 36.9189 0.00718472 35.6477 0.00718472 34.3778C0.00718472 33.6612 0.293838 33.333 1.02179 33.1746C2.04016 32.9483 3.0623 32.7333 4.18628 32.4956L2.5682 30.1306C1.84025 29.0707 1.86288 28.8368 2.78319 27.9127L5.17071 25.5288C5.8798 24.8196 6.22303 24.7744 7.05658 25.3704L9.57611 27.1055C9.80241 26.0455 10.0099 25.0535 10.2286 24.0615C10.4323 23.1524 10.6397 22.9789 11.3979 22.8997C11.8354 21.0514 12.1145 19.2069 12.7142 17.4718C14.4982 12.3608 17.889 8.64163 22.7395 6.29169C25.7015 4.83005 29.0056 4.20283 32.2971 4.47737C32.5625 4.5123 32.8323 4.49034 33.0885 4.41295C33.3447 4.33555 33.5815 4.2045 33.7832 4.02851C34.496 3.43631 35.2542 2.89691 36.001 2.3462C36.7478 1.7955 37.2532 1.88225 37.8039 2.61024C38.513 3.54066 39.2158 4.47611 39.9123 5.41659C40.2216 5.82774 40.5761 6.13704 41.1306 5.99748C41.685 5.85792 41.8849 5.43923 41.949 4.92246C42.115 3.72675 42.2847 2.52726 42.4808 1.33531C42.6128 0.501707 43.0579 0.203721 43.8764 0.320652C45.7132 0.58469 47.5501 0.848729 49.3869 1.10145C50.4053 1.24101 50.741 1.67102 50.5901 2.70077C50.4279 3.83236 50.2733 4.96396 50.1035 6.11441C50.0378 6.33877 50.046 6.57832 50.1268 6.7977C50.2076 7.01708 50.3568 7.20466 50.5524 7.33276C51.0352 7.63829 51.4689 7.46855 51.8838 7.15548C52.8343 6.4388 53.786 5.72464 54.739 5.01299C55.4443 4.49623 55.9837 4.56413 56.508 5.2544C57.6546 6.76319 58.7861 8.27827 59.9025 9.79963C60.4608 10.554 60.3891 11.0368 59.6498 11.6026C58.722 12.3118 57.764 13.0096 56.8437 13.7074C56.4061 14.028 56.0893 14.409 56.2741 14.9861C56.4589 15.5632 56.8738 15.6915 57.383 15.7405C58.5409 15.8951 59.6989 16.0762 60.8568 16.2271C61.1059 16.2451 61.3446 16.3338 61.5451 16.4828C61.7455 16.6318 61.8993 16.8349 61.9883 17.0682L61.9959 18.0414ZM44.0951 33.5933C44.2196 32.6918 44.3441 31.8582 44.4459 31.0246C44.4732 30.5291 44.6114 30.0462 44.8503 29.6114C45.0892 29.1766 45.4228 28.801 45.8264 28.5124C46.4916 28.0555 47.3098 27.8785 48.1044 28.0196C48.899 28.1607 49.6062 28.6087 50.0734 29.2668C50.6806 30.0212 51.2539 30.8322 51.8499 31.6243L55.1313 29.1499C54.5316 28.3464 53.9545 27.5958 53.4 26.8301C53.0023 26.3295 52.768 25.7187 52.7288 25.0804C52.6897 24.4422 52.8476 23.8073 53.1813 23.2618C53.5276 22.7237 54.0283 22.3026 54.6178 22.0536C55.2072 21.8046 55.8581 21.7393 56.4853 21.8662C57.3755 22.0058 58.2694 22.1227 59.2123 22.2434L59.8007 18.1847C59.1935 18.0942 58.6164 18.015 58.0393 17.9207C57.4592 17.8596 56.8844 17.7562 56.3194 17.6114C55.7976 17.4668 55.3274 17.1776 54.963 16.7771C54.5986 16.3767 54.3549 15.8813 54.26 15.3482C54.1174 14.7752 54.1489 14.1727 54.3504 13.6177C54.552 13.0627 54.9145 12.5805 55.3915 12.2326C56.1761 11.6064 56.987 11.0218 57.813 10.3994L55.3538 7.12907C54.4147 7.80803 53.5509 8.50207 52.6155 9.0905C51.9478 9.49966 51.1472 9.63317 50.3828 9.46284C49.6185 9.2925 48.9502 8.83165 48.5194 8.17768C47.931 7.29881 47.9725 6.35582 48.1196 5.38265C48.2328 4.62825 48.3384 3.84745 48.4515 3.05534L44.3969 2.47068C44.2536 3.43631 44.1065 4.30763 43.9971 5.1865C43.816 6.61231 43.0768 7.60057 41.6888 7.97022C40.3008 8.33988 39.1164 7.80048 38.2603 6.63117C37.7247 5.90695 37.1778 5.19028 36.6195 4.45097L33.3381 6.91407C33.9416 7.72127 34.5149 8.4719 35.0731 9.23383C35.4731 9.72211 35.7118 10.3224 35.7564 10.952C35.801 11.5816 35.6492 12.2096 35.3221 12.7493C34.6997 13.8809 33.4701 14.3977 32.0633 14.2015L29.2533 13.8243C29.0572 15.2124 28.8761 16.5402 28.6838 17.883C29.6287 17.9759 30.568 18.1195 31.4975 18.313C32.1785 18.4611 32.8162 18.7644 33.3608 19.1994C33.6692 19.4845 33.9137 19.8319 34.0779 20.2186C34.2422 20.6052 34.3225 21.0223 34.3136 21.4423C34.3047 21.8623 34.2067 22.2756 34.0262 22.655C33.8457 23.0343 33.5867 23.371 33.2665 23.6428C32.4555 24.3519 31.5654 24.9743 30.679 25.657C31.0977 26.2228 31.4937 26.7547 31.8935 27.2827L33.1382 28.9311C33.9303 28.3389 34.6846 27.7693 35.4465 27.2073C35.7981 26.9171 36.2108 26.7104 36.6537 26.6026C37.0966 26.4948 37.5582 26.4888 38.0038 26.5849C39.769 26.9621 40.7081 28.4709 40.4064 30.3909C40.2706 31.2584 40.1612 32.126 40.0292 33.0312L44.0951 33.5933ZM22.6226 43.0232C22.0795 41.0392 20.2615 40.2848 18.8508 39.1343C17.1347 42.1217 14.1437 42.9063 11.7524 42.2537C10.5004 41.9084 9.38741 41.1809 8.56861 40.1728C7.74982 39.1646 7.26607 37.926 7.18482 36.6297C7.11305 35.4394 7.40509 34.2554 8.02215 33.2349C8.49914 32.4027 9.16191 31.6919 9.95878 31.158C10.7557 30.6241 11.6651 30.2816 12.6161 30.157C12.4464 29.5761 12.2767 29.0593 12.1522 28.5313C12.0277 28.0032 11.9448 27.4789 11.8241 26.8452C11.7486 27.0527 11.7034 27.162 11.6732 27.2752C11.1866 29.1612 9.7647 29.7119 8.1617 28.618L6.35504 27.3884L4.46916 29.2517C4.94063 29.942 5.4385 30.6285 5.88734 31.3376C6.08943 31.6178 6.21693 31.9448 6.25785 32.2879C6.29877 32.6309 6.25176 32.9788 6.12125 33.2986C5.99074 33.6185 5.78102 33.9 5.5118 34.1165C5.24259 34.333 4.92273 34.4774 4.58232 34.5363C3.76385 34.7286 2.93783 34.8908 2.07787 35.0757V37.5086C2.90389 37.6896 3.69218 37.8518 4.47293 38.0291C6.14759 38.4063 6.76993 39.9377 5.82322 41.3598C5.38193 42.0274 4.918 42.6837 4.47293 43.325L6.35881 45.211C6.99623 44.7772 7.63743 44.3283 8.28994 43.8908C9.74961 42.9138 11.2809 43.5136 11.6845 45.2147C11.8656 46.0068 12.0315 46.8065 12.1975 47.5684H14.6001C14.7547 46.814 14.8943 46.1087 15.0489 45.3996C15.4827 43.4494 16.9725 42.8572 18.617 43.9851L20.435 45.226L22.6226 43.0232ZM13.6534 40.3527C14.9999 40.3074 16.237 39.5643 17.0479 38.0895C17.135 37.9701 17.1715 37.8212 17.1497 37.6751C17.1278 37.5289 17.0492 37.3973 16.931 37.3087C15.6402 36.0015 14.5781 34.4867 13.7892 32.8276C13.4874 32.1712 13.0952 32.1222 12.5068 32.2618C11.5324 32.4722 10.6686 33.0317 10.0781 33.8348C9.48759 34.638 9.21112 35.6293 9.30077 36.6222C9.50822 38.7684 11.1565 40.2923 13.6534 40.3527ZM27.0129 56.8588V57.5114C27.0129 59.1233 27.8125 59.9317 29.4117 59.9368C30.498 59.9368 31.5918 59.8764 32.6705 59.9368C34.4018 60.0537 35.5974 58.9221 35.1674 56.8437L27.0129 56.8588ZM35.2278 52.7738H27.0468V54.7578H35.2353L35.2278 52.7738Z" fill="#3A43AF"/>
<path d="M13.5632 0C14.2609 2.72337 14.9587 5.45051 15.6716 8.22668L13.6876 8.75476L11.583 0.577113L13.1935 0H13.5632Z" fill="#3A43AF"/>
<path d="M23.4676 11.7648L24.437 13.3037C23.3281 14.4353 22.1739 15.401 21.2461 16.5816C16.5201 22.7337 18.8849 31.9411 25.9607 35.1133C27.4393 35.7772 28.8763 36.4825 29.9663 37.7537C31.3688 39.3234 32.1424 41.3557 32.1389 43.4607H30.1964C30.0578 42.689 29.8752 41.9258 29.6495 41.1749C29.3778 40.3673 28.9382 39.6265 28.3596 39.0011C27.781 38.3757 27.0766 37.8798 26.2927 37.5462C24.32 36.6862 22.4606 35.6602 20.9519 34.0987C19.4248 32.5717 18.2615 30.7203 17.5484 28.682C16.8353 26.6436 16.5907 24.4707 16.8328 22.3248C17.0749 20.1789 17.7974 18.1152 18.9467 16.287C20.096 14.4587 21.6426 12.913 23.4714 11.7648H23.4676Z" fill="#3A43AF"/>
<path d="M11.1567 10.7425L9.96101 12.4173L2.76074 7.27232L3.96016 5.6051L11.1567 10.7425Z" fill="#3A43AF"/>
<path d="M1.55353 19.7802L1.05566 17.7848L9.27808 15.7216L9.77595 17.7169L1.55353 19.7802Z" fill="#3A43AF"/>
<path d="M50.3115 43.7097C52.3708 45.4297 54.4113 47.1309 56.482 48.8509L55.1619 50.4352L48.9951 45.2939L50.3115 43.7097Z" fill="#3A43AF"/>
<path d="M50.6963 40.3564V38.3799H57.84V40.3564H50.6963Z" fill="#3A43AF"/>
<path d="M46.5475 46.6028V53.7318H44.5371V46.6028H46.5475Z" fill="#3A43AF"/>
<path d="M30.1592 45.5466H32.1356V48.5642H30.1592V45.5466Z" fill="#3A43AF"/>
<path d="M52.4533 18.03C52.4533 19.6576 51.9706 21.2486 51.0662 22.6017C50.1618 23.9548 48.8764 25.0093 47.3726 25.6316C45.8688 26.2539 44.2142 26.4162 42.6181 26.0978C41.0221 25.7795 39.5564 24.9948 38.4064 23.8432C37.2564 22.6915 36.4738 21.2246 36.1577 19.628C35.8415 18.0315 36.0061 16.377 36.6304 14.874C37.2548 13.3709 38.3109 12.0869 39.6652 11.1843C41.0195 10.2817 42.611 9.80111 44.2385 9.80335C46.4173 9.80934 48.505 10.6784 50.0447 12.2202C51.5843 13.762 52.4504 15.8511 52.4533 18.03ZM50.394 18.03C50.391 16.3944 49.7384 14.8269 48.5798 13.6725C47.4211 12.518 45.8514 11.8712 44.2158 11.8742C42.5803 11.8772 41.0129 12.5298 39.8586 13.6885C38.7042 14.8472 38.0574 16.417 38.0604 18.0527C38.0634 19.6883 38.716 21.2558 39.8746 22.4102C40.4483 22.9818 41.1289 23.4349 41.8777 23.7434C42.6264 24.052 43.4286 24.21 44.2385 24.2085C45.0483 24.207 45.8499 24.0461 46.5976 23.7348C47.3452 23.4235 48.0242 22.9679 48.5958 22.3942C49.1673 21.8205 49.6203 21.1398 49.9289 20.391C50.2374 19.6422 50.3955 18.8399 50.394 18.03Z" fill="#3A43AF"/>
</g>
<defs>
<clipPath id="clip0_2634_5052">
<rect width="62" height="62" fill="white"/>
</clipPath>
</defs>
</svg>
