<svg width="26" height="20" viewBox="0 0 26 20" fill="none" xmlns="http://www.w3.org/2000/svg">
<path d="M10.3715 2.3996C10.4129 2.38137 10.4582 2.37384 10.5033 2.37771C10.5484 2.38157 10.5918 2.39671 10.6295 2.42172C10.6672 2.44674 10.698 2.48083 10.7191 2.52087C10.7402 2.56091 10.7509 2.6056 10.7502 2.65085V4.81273C10.7502 5.06137 10.849 5.29983 11.0248 5.47564C11.2006 5.65146 11.4391 5.75023 11.6877 5.75023C12.9384 5.75023 15.4621 5.7596 17.8752 7.29148C19.7202 8.46148 21.6065 10.5915 22.7409 14.559C20.8284 12.7159 18.644 11.7165 16.7315 11.1859C15.5559 10.8612 14.3478 10.6687 13.1296 10.6121C12.631 10.5902 12.1315 10.5952 11.6334 10.6271H11.609L11.5996 10.629H11.5977L11.6877 11.5627L11.594 10.629C11.3626 10.6522 11.1481 10.7607 10.9921 10.9332C10.8362 11.1058 10.75 11.3302 10.7502 11.5627V13.7246C10.7502 13.9271 10.544 14.0546 10.3715 13.9759L2.90148 8.47648C2.87613 8.45767 2.84984 8.44015 2.82273 8.42398C2.78196 8.39948 2.74823 8.36484 2.72481 8.32345C2.70139 8.28205 2.68908 8.23529 2.68908 8.18773C2.68908 8.14016 2.70139 8.09341 2.72481 8.05201C2.74823 8.01061 2.78196 7.97598 2.82273 7.95148C2.84985 7.93532 2.87614 7.9178 2.90148 7.89898L10.3715 2.3996ZM12.6252 12.474C12.7527 12.474 12.8934 12.4796 13.0434 12.4852C13.8571 12.5227 14.9821 12.6465 16.2309 12.9934C18.7171 13.6834 21.6609 15.2471 23.6184 18.7684C23.7242 18.9584 23.8929 19.1058 24.0955 19.1851C24.298 19.2645 24.5219 19.2709 24.7287 19.2033C24.9355 19.1357 25.1123 18.9983 25.2289 18.8146C25.3455 18.6309 25.3946 18.4124 25.3677 18.1965C24.4977 11.2402 21.8315 7.58023 18.8802 5.70898C16.5459 4.22773 14.1421 3.94273 12.6252 3.88835V2.65085C12.6254 2.26473 12.5214 1.88572 12.324 1.55382C12.1267 1.22191 11.8435 0.949418 11.5042 0.765088C11.1649 0.580758 10.7822 0.491428 10.3964 0.506523C10.0105 0.521618 9.63595 0.640579 9.31211 0.850853L1.82336 6.36335C1.51376 6.55661 1.25843 6.82547 1.08142 7.14464C0.904403 7.4638 0.811523 7.82276 0.811523 8.18773C0.811523 8.55269 0.904403 8.91165 1.08142 9.23082C1.25843 9.54998 1.51376 9.81885 1.82336 10.0121L9.31211 15.5246C9.63595 15.7349 10.0105 15.8538 10.3964 15.8689C10.7822 15.884 11.1649 15.7947 11.5042 15.6104C11.8435 15.426 12.1267 15.1535 12.324 14.8216C12.5214 14.4897 12.6254 14.1107 12.6252 13.7246V12.474Z" fill="#BDBDBD"/>
</svg>
