<svg width="187" height="186" viewBox="0 0 187 186" fill="none" xmlns="http://www.w3.org/2000/svg">
<circle cx="96.4813" cy="95.0888" r="90.5185" fill="#3A43AF" fill-opacity="0.3"/>
<circle cx="90.5185" cy="90.5185" r="89.5185" stroke="#3A43AF" stroke-width="2"/>
<path d="M136.949 126.101C136.838 126.298 136.702 126.483 136.603 126.703C135.663 128.739 134.043 129.873 131.657 129.977C131.31 130 130.964 130 130.63 130H70.2453C69.9238 130 69.6023 130 69.3055 129.977C68.5499 129.931 68.1431 129.503 68.0924 128.843C68.0417 128.184 68.4399 127.767 69.1064 127.617C69.4448 127.559 69.789 127.536 70.1328 127.547C90.3897 127.547 110.634 127.555 130.865 127.571C133.252 127.571 134.438 126.194 134.414 124.227C134.328 118.871 134.389 113.514 134.389 108.158C134.389 106.098 133.263 105.034 131.063 105.034H54.8864C52.6852 105.034 51.5846 106.087 51.5598 108.158V124.47C51.5598 126.506 52.6604 127.536 54.8122 127.536H62.8132C63.129 127.521 63.4453 127.549 63.753 127.617C64.4208 127.813 64.7176 128.265 64.6434 128.901C64.5568 129.503 64.1611 129.907 63.5181 129.907C60.2163 129.931 56.9144 130.035 53.6497 129.838C51.5598 129.711 50.1253 128.427 49.3462 126.576C49.2597 126.344 49.1113 126.101 49 125.87V106.584C49.0482 106.538 49.136 106.503 49.1608 106.434C50.2614 103.692 51.9308 102.581 55.0471 102.581H69.8496V83.1456C69.8496 80.4269 71.1604 79.027 74.0913 78.7262V71.6807C74.0851 68.8623 74.8063 66.0842 76.1935 63.5824C79.9282 56.7914 87.9044 53.0431 96.0539 54.2115C103.845 55.3453 110.238 61.1992 111.561 68.5108C111.761 69.6157 111.869 70.7336 111.883 71.8542C111.932 74.1218 111.907 76.4008 111.907 78.5874C112.736 78.865 113.552 79.0154 114.245 79.3857C115.481 80.0451 116.05 81.1441 116.124 82.4514C116.174 83.4001 116.149 84.3141 116.124 85.2627C116.1 86.0725 115.58 86.6163 114.863 86.6163C114.109 86.6394 113.577 86.0841 113.552 85.228C113.527 84.4529 113.552 83.6893 113.552 82.8911C113.527 81.6532 113.044 81.1789 111.745 81.1789H74.2298C73.0414 81.1789 72.4614 81.63 72.4614 82.6828C72.4367 89.2656 72.4614 95.8599 72.4614 102.512H87.139C87.3739 100.73 87.5965 98.972 87.782 97.2019C87.8068 96.9705 87.672 96.6929 87.5483 96.4499C86.2622 93.9857 86.93 91.0935 89.1794 89.416C90.263 88.607 91.6081 88.1665 92.9944 88.1665C94.3807 88.1665 95.7259 88.607 96.8094 89.416C99.0601 91.0819 99.7155 93.9857 98.4542 96.4499C98.2898 96.7782 98.2256 97.1425 98.2687 97.5027C98.4307 99.1686 98.6533 100.846 98.8635 102.535H113.566V91.6025C113.546 91.3355 113.562 91.0673 113.615 90.8042C113.727 90.2027 114.147 89.8556 114.778 89.844C115.421 89.7977 115.903 90.0985 116.064 90.677C116.136 90.9885 116.165 91.3073 116.15 91.6257V102.558H131.114C134.156 102.558 136.011 103.889 136.864 106.654C136.88 106.675 136.9 106.694 136.923 106.707C136.946 106.721 136.973 106.731 137 106.735C136.949 113.237 136.949 119.669 136.949 126.101ZM109.273 78.7956C109.273 76.4356 109.323 74.168 109.249 71.8889C109.238 70.7939 109.122 69.702 108.902 68.6265C107.505 61.6388 100.679 56.4791 92.9623 56.4791C85.1962 56.4791 78.2092 61.6388 77.0468 68.6959C76.5027 71.9699 76.75 75.3596 76.6635 78.7031C76.6635 78.7493 76.7377 78.7841 76.7377 78.7841H82.5127C82.5127 76.343 82.4633 73.9598 82.5127 71.5881C82.6488 64.0914 91.4412 59.4754 98.2922 63.3395C101.705 65.2715 103.35 68.1869 103.424 71.8889C103.474 74.1796 103.424 76.4703 103.424 78.8072C105.381 78.7956 107.285 78.7956 109.276 78.7956H109.273ZM85.1715 78.7609H100.815C100.815 76.3199 100.889 73.9367 100.79 71.565C100.679 67.7125 97.4265 64.5774 93.4322 64.3807C89.24 64.184 85.592 66.8449 85.1839 70.7668C84.9514 73.3814 85.174 76.0538 85.174 78.7609H85.1715ZM96.2146 102.593C96.0539 101.367 95.8684 100.175 95.7818 98.9951C95.6952 97.8151 95.25 96.6581 96.0168 95.4781C96.9059 94.0667 96.4978 92.3661 95.1635 91.3596C94.5502 90.8905 93.7835 90.6323 92.9914 90.6281C92.1992 90.6238 91.4295 90.8739 90.8105 91.3364C89.4379 92.3661 89.0422 94.0204 89.9202 95.5128C90.3094 96.1966 90.4442 96.9822 90.3035 97.7456C90.0686 99.3537 89.9202 100.962 89.7099 102.593H96.2146Z" fill="#3A43AF"/>
<path d="M82.691 113.656V109.553C82.691 108.57 83.213 108 84.0152 108C84.8173 108 85.338 108.57 85.338 109.553V113.632C86.587 112.907 87.6935 112.169 88.903 111.6C89.3244 111.38 90.0362 111.405 90.4309 111.625C90.7632 111.82 90.9796 112.493 90.9274 112.92C90.8765 113.308 90.4563 113.709 90.0743 113.955C88.9921 114.68 87.8602 115.301 86.6749 115.987C87.8602 116.686 88.9667 117.333 90.0743 118.006C90.9656 118.563 91.2342 119.275 90.7886 120C90.3672 120.725 89.6033 120.841 88.712 120.31C87.6298 119.689 86.5476 119.042 85.3138 118.317V122.368C85.3138 123.378 84.7651 124.025 83.9515 123.999C83.1736 123.973 82.6528 123.378 82.6528 122.394V118.343C81.4306 119.068 80.3229 119.715 79.2152 120.362C78.6295 120.699 78.0566 120.789 77.4964 120.362C76.7452 119.741 76.8598 118.68 77.751 118.136C78.9096 117.411 80.081 116.764 81.3414 116.026C80.1574 115.327 79.0497 114.654 77.942 114.007C77.0507 113.45 76.7834 112.764 77.2163 112.014C77.6364 111.289 78.4003 111.172 79.2916 111.677C80.3738 112.284 81.4688 112.931 82.691 113.656Z" fill="#3A43AF"/>
<path d="M104.776 118.343V122.343C104.776 123.379 104.291 124 103.523 124C102.779 124 102.318 123.379 102.294 122.317V118.33C101.16 119.055 100.132 119.793 99.033 120.349C98.6194 120.569 97.9341 120.569 97.5205 120.324C96.7524 119.87 96.8588 118.641 97.6978 118.123C98.7731 117.398 99.8602 116.751 101.042 115.987C99.9429 115.288 98.9385 114.64 97.9105 113.993C97.036 113.437 96.7997 112.776 97.166 112.026C97.5323 111.275 98.265 111.119 99.1394 111.663C100.144 112.284 101.148 112.932 102.271 113.631V109.606C102.271 108.57 102.755 107.975 103.523 108.001C104.268 108.027 104.729 108.596 104.729 109.58V113.632C105.828 112.933 106.832 112.286 107.836 111.664C108.711 111.108 109.432 111.263 109.833 112.001C110.2 112.739 109.963 113.438 109.111 113.995C108.107 114.642 107.103 115.289 105.98 115.988C107.056 116.661 108.061 117.283 109.04 117.93C109.939 118.5 110.198 119.224 109.809 119.962C109.419 120.7 108.698 120.83 107.812 120.273C106.879 119.663 105.896 119.042 104.776 118.343Z" fill="#3A43AF"/>
<path d="M121.706 118.325C120.456 119.049 119.371 119.695 118.274 120.341C117.381 120.845 116.615 120.703 116.194 119.98C115.799 119.243 116.054 118.545 116.973 117.989C118.057 117.343 119.167 116.697 120.354 115.999C119.193 115.301 118.083 114.655 116.973 114.009C116.054 113.453 115.786 112.794 116.169 112.045C116.552 111.295 117.355 111.14 118.3 111.683C119.384 112.303 120.469 112.949 121.681 113.647V109.603C121.681 108.595 122.153 108.027 122.957 108.001C123.812 107.975 124.322 108.569 124.348 109.603C124.372 110.896 124.348 112.162 124.348 113.623C125.241 113.093 126.07 112.64 126.874 112.162C127.133 112.027 127.384 111.876 127.625 111.71C128.57 111.154 129.348 111.258 129.794 111.968C130.241 112.731 129.962 113.48 128.941 114.075C128.111 114.579 127.257 115.057 126.413 115.561C126.172 115.703 125.967 115.845 125.687 116.013C126.848 116.685 127.933 117.306 129.017 117.952C129.936 118.508 130.217 119.218 129.821 119.942C129.426 120.705 128.622 120.847 127.665 120.304C126.58 119.684 125.496 119.037 124.309 118.34V122.32C124.309 123.354 123.786 123.974 122.982 124C122.178 124 121.655 123.38 121.655 122.346C121.706 121.052 121.706 119.76 121.706 118.325Z" fill="#3A43AF"/>
<path d="M65.9948 116.013C67.1298 116.736 68.182 117.381 69.2106 118.039C69.979 118.542 70.1918 119.278 69.8253 119.974C69.4588 120.671 68.7483 120.839 67.9692 120.361C66.917 119.716 65.912 119.071 64.7298 118.336V122.09C64.7298 123.355 64.2923 124 63.4766 124C62.6608 123.974 62.247 123.329 62.247 122.039V118.362C61.1121 119.084 60.0835 119.729 59.0549 120.374C58.5111 120.71 57.9554 120.8 57.4589 120.349C56.7613 119.729 56.8677 118.671 57.719 118.129C58.7712 117.433 59.847 116.787 61.0293 116.026C60.0835 115.433 59.2086 114.878 58.3337 114.31C58.0932 114.175 57.8602 114.024 57.6362 113.859C57.0214 113.407 56.8441 112.736 57.1515 112.065C57.2257 111.904 57.3292 111.761 57.4557 111.645C57.5823 111.529 57.7291 111.443 57.8874 111.391C58.0456 111.339 58.2119 111.323 58.376 111.343C58.5402 111.364 58.6988 111.421 58.8421 111.51C59.7879 112.065 60.6864 112.659 61.6204 113.226C61.7978 113.342 61.9869 113.471 62.2589 113.626V109.678C62.2589 108.607 62.6963 108.027 63.4648 108.001C64.2793 107.975 64.718 108.569 64.718 109.704V113.652C65.6401 113.084 66.4677 112.555 67.3071 112.026C67.5897 111.859 67.8746 111.639 68.1572 111.497C68.8204 111.162 69.4707 111.355 69.8005 111.949C70.167 112.594 70.0251 113.381 69.3631 113.807C68.2884 114.568 67.1771 115.265 65.9948 116.013Z" fill="#3A43AF"/>
</svg>
