<svg width="135" height="134" viewBox="0 0 135 134" fill="none" xmlns="http://www.w3.org/2000/svg">
<circle cx="70" cy="69" r="65" fill="#35CD00" fill-opacity="0.3"/>
<circle cx="65" cy="65" r="64.5" stroke="#35CD00"/>
<path d="M92.4562 46.3389C92.823 45.9646 93.2608 45.6673 93.744 45.4643C94.2271 45.2613 94.7459 45.1567 95.27 45.1567C95.7941 45.1567 96.3129 45.2613 96.796 45.4643C97.2792 45.6673 97.717 45.9646 98.0838 46.3389C99.6211 47.8923 99.6426 50.4024 98.1376 51.9826L66.3552 89.5539C65.9944 89.9501 65.5565 90.2686 65.0683 90.4898C64.5802 90.711 64.052 90.8303 63.5162 90.8403C62.9803 90.8504 62.4481 90.751 61.952 90.5483C61.4558 90.3456 61.0063 90.0438 60.6308 89.6614L41.2916 70.0641C40.5457 69.3035 40.1279 68.2807 40.1279 67.2154C40.1279 66.1501 40.5457 65.1273 41.2916 64.3666C41.6584 63.9923 42.0962 63.695 42.5794 63.492C43.0625 63.289 43.5813 63.1845 44.1054 63.1845C44.6295 63.1845 45.1483 63.289 45.6314 63.492C46.1146 63.695 46.5524 63.9923 46.9192 64.3666L63.3237 80.9915L92.3487 46.4571C92.3821 46.4156 92.418 46.3761 92.4562 46.3389Z" fill="#35CD00"/>
</svg>
