<svg width="15" height="15" viewBox="0 0 15 15" fill="none" xmlns="http://www.w3.org/2000/svg">
<path d="M7.49324 0.416626C3.58324 0.416626 0.416992 3.58996 0.416992 7.49996C0.416992 11.41 3.58324 14.5833 7.49324 14.5833C11.4103 14.5833 14.5837 11.41 14.5837 7.49996C14.5837 3.58996 11.4103 0.416626 7.49324 0.416626ZM7.50033 13.1666C4.36949 13.1666 1.83366 10.6308 1.83366 7.49996C1.83366 4.36913 4.36949 1.83329 7.50033 1.83329C10.6312 1.83329 13.167 4.36913 13.167 7.49996C13.167 10.6308 10.6312 13.1666 7.50033 13.1666ZM7.85449 3.95829H6.79199V8.20829L10.5107 10.4395L11.042 9.56829L7.85449 7.67704V3.95829Z" fill="#BDBDBD"/>
</svg>
